<?xml version="1.0" encoding="UTF-8"?>
<svg width="40px" height="40px" viewBox="0 0 40 40" version="1.1" xmlns="http://www.w3.org/2000/svg" xmlns:xlink="http://www.w3.org/1999/xlink">
    <!-- Generator: Sketch 50.2 (55047) - http://www.bohemiancoding.com/sketch -->
    <title>logo</title>
    <desc>Created with Sketch.</desc>
    <defs>
        <polygon id="path-1" points="0.617709428 0.1753 24.131 0.1753 24.131 34.8195044 0.617709428 34.8195044"></polygon>
        <polygon id="path-3" points="0.0394 0 16.0704 0 16.0704 17.4586 0.0394 17.4586"></polygon>
        <polygon id="path-5" points="0.0351 0.1903 0.131 0.1903 0.131 1.1903 0.0351 1.1903"></polygon>
        <polygon id="path-7" points="0.0159 0.1273 0.131 0.1273 0.131 1.1273 0.0159 1.1273"></polygon>
        <polygon id="path-9" points="0.0278 0.1395 0.131 0.1395 0.131 1.1395 0.0278 1.1395"></polygon>
        <polygon id="path-11" points="0.9926 0.9015 1.131 0.9015 1.131 1.9015 0.9926 1.9015"></polygon>
        <polygon id="path-13" points="0.8709 0.2678 1.131 0.2678 1.131 1.2678 0.8709 1.2678"></polygon>
        <polygon id="path-15" points="0.0146 0.0635 0.131 0.0635 0.131 1.0635 0.0146 1.0635"></polygon>
        <polygon id="path-17" points="0.9644 0.7851 1.131 0.7851 1.131 1.7851 0.9644 1.7851"></polygon>
        <polygon id="path-19" points="0.8131 0.027 1.131 0.027 1.131 1.027 0.8131 1.027"></polygon>
        <polygon id="path-21" points="0.7844 0.9148 1.131 0.9148 1.131 1.9148 0.7844 1.9148"></polygon>
        <polygon id="path-23" points="0.9365 0.6195 1.131 0.6195 1.131 1.6195 0.9365 1.6195"></polygon>
        <polygon id="path-25" points="0.9514 0.7191 1.131 0.7191 1.131 1.7191 0.9514 1.7191"></polygon>
        <polygon id="path-27" points="0.6989 0.2462 3.9869 0.2462 3.9869 4 0.6989 4"></polygon>
        <polygon id="path-29" points="0.425 0.2471 4.082 0.2471 4.082 4 0.425 4"></polygon>
        <polygon id="path-31" points="0.354 0.4755 1.354 0.4755 1.354 1 0.354 1"></polygon>
        <path d="M7.706,0.216 C2.798,1.4 0.06,6.716 0.713,16.472 C0.713,16.472 1.042,19.939 1.903,23.426 C3.837,31.255 5.645,26.43 12.865,33.65 C16.918,37.703 22.792,30.651 24.027,21.241 C24.117,20.559 24.129,19.094 24.131,18.522 L24.131,18.286 C23.912,12.099 20.861,5.149 17.772,3.41 C13.952,1.258 11.919,1.24 8.166,0.175 C8.01,0.184 7.857,0.198 7.706,0.216 Z" id="path-33"></path>
        <path d="M7.706,0.216 C2.798,1.4 0.06,6.716 0.713,16.472 C0.713,16.472 1.042,19.939 1.903,23.426 C3.837,31.255 5.645,26.43 12.865,33.65 C16.918,37.703 22.792,30.651 24.027,21.241 C24.117,20.559 24.129,19.094 24.131,18.522 L24.131,18.286 C23.912,12.099 20.861,5.149 17.772,3.41 C13.952,1.258 11.919,1.24 8.166,0.175 C8.01,0.184 7.857,0.198 7.706,0.216 Z" id="path-35"></path>
    </defs>
    <g id="logo" stroke="none" stroke-width="1" fill="none" fill-rule="evenodd">
        <g id="Group" transform="translate(7.000000, 0.000000)">
            <g id="Group-93">
                <path d="M9.0397,0.1441 C9.0357,0.1431 9.0317,0.1431 9.0267,0.1421 C9.0307,0.1431 9.0347,0.1441 9.0387,0.1441 C9.0387,0.1441 9.0387,0.1441 9.0397,0.1441" id="Fill-1" fill="#FBD47D"></path>
                <path d="M9.1659,0.1752 C9.1229,0.1632 9.0829,0.1552 9.0399,0.1442 C9.0389,0.1442 9.0389,0.1442 9.0379,0.1442 C9.0809,0.1562 9.1229,0.1632 9.1659,0.1752" id="Fill-3" fill="#000000"></path>
                <path d="M7.1396,0.0706 C7.2226,0.0556 7.3066,0.0436 7.3916,0.0336 C7.1636,0.0506 6.9426,0.0816 6.7276,0.1266 C6.8336,0.1096 6.9396,0.0946 7.0486,0.0826 C7.0786,0.0786 7.1096,0.0746 7.1396,0.0706" id="Fill-5" fill="#EC746C"></path>
                <path d="M7.0487,0.0828 C7.0627,0.0818 7.0777,0.0808 7.0917,0.0788 C7.1077,0.0758 7.1237,0.0738 7.1397,0.0708 C7.1097,0.0748 7.0787,0.0788 7.0487,0.0828" id="Fill-7" fill="#EC746C"></path>
                <g id="Group-11" transform="translate(1.000000, 0.000000)">
                    <mask id="mask-2" fill="white">
                        <use xlink:href="#path-1"></use>
                    </mask>
                    <g id="Clip-10"></g>
                    <path d="M7.7059,0.2163 C7.8569,0.1983 8.0099,0.1843 8.1659,0.1753 C11.9199,1.2393 13.9519,1.2583 17.7719,3.4093 C20.8609,5.1493 23.9119,12.0983 24.1309,18.2853 C24.1309,18.2853 24.1399,20.3843 24.0279,21.2413 C22.7909,30.6503 16.9179,37.7033 12.8649,33.6503 C5.6449,26.4303 3.8379,31.2553 1.9029,23.4253 C1.0419,19.9383 0.7129,16.4723 0.7129,16.4723 C0.0609,6.7163 2.7979,1.4003 7.7059,0.2163" id="Fill-9" fill="#322C32" mask="url(#mask-2)"></path>
                </g>
                <g id="Group-14" transform="translate(9.000000, 0.000000)">
                    <mask id="mask-4" fill="white">
                        <use xlink:href="#path-3"></use>
                    </mask>
                    <g id="Clip-13"></g>
                    <path d="M9.7924,3.6396 C12.6454,5.4146 15.3594,11.1776 16.0284,17.1396 C16.0304,17.1566 16.0324,17.1736 16.0344,17.1906 C16.0474,17.2776 16.0594,17.3676 16.0704,17.4586 C15.3754,8.8146 13.1064,4.2096 9.8744,2.2466 C7.6214,0.8786 2.9724,-0.4074 0.1444,0.1216 C0.1094,0.1276 0.0744,0.1366 0.0394,0.1436 C0.0824,0.1556 0.1224,0.1626 0.1654,0.1756 C2.7194,0.0316 7.7814,2.3886 9.7924,3.6396" id="Fill-12" fill="#A0D0E9" mask="url(#mask-4)"></path>
                </g>
                <path d="M24.9929,16.9018 C25.0059,16.9798 25.0169,17.0598 25.0279,17.1398 C24.3589,11.1778 21.6459,5.4138 18.7929,3.6398 C16.7819,2.3888 11.7199,0.0318 9.1659,0.1748 C12.9739,0.7648 16.6119,4.0228 18.6239,5.2738 C21.4349,7.0218 24.2529,11.2428 24.9929,16.9018" id="Fill-15" fill="#3791C5"></path>
                <path d="M18.0754,7.0584 C20.7694,8.7344 23.9024,11.2764 24.8704,16.2674 C24.9164,16.4724 24.9574,16.6824 24.9924,16.9014 C24.2534,11.2424 21.4344,7.0214 18.6234,5.2734 C16.6124,4.0224 12.9744,0.7654 9.1654,0.1754 C12.9284,1.1804 16.0644,5.8074 18.0754,7.0584" id="Fill-17" fill="#315A9E"></path>
                <path d="M6.728,0.1262 C2.053,0.8762 0.984,6.8562 1.616,15.2862 C1.612,15.2252 1.608,15.1642 1.604,15.1032 C1.032,6.6802 2.73,0.9652 6.728,0.1262" id="Fill-19" fill="#FBD47D"></path>
                <path d="M7.0913,0.0791 C7.0773,0.0801 7.0623,0.0811 7.0483,0.0831 C2.8393,0.7041 1.0173,6.4641 1.6043,15.1031 C1.0733,6.8301 3.2743,0.8061 7.0913,0.0791" id="Fill-21" fill="#EC746C"></path>
                <path d="M7.0487,0.0828 C6.9397,0.0948 6.8337,0.1098 6.7277,0.1258 C2.7297,0.9648 1.0317,6.6808 1.6047,15.1028 C1.0177,6.4638 2.8387,0.7038 7.0487,0.0828" id="Fill-23" fill="#EC746C"></path>
                <path d="M9.0271,0.1424 C9.0081,0.1384 8.9881,0.1354 8.9691,0.1324 C8.4191,0.0064 7.8921,-0.0246 7.3921,0.0334 C7.3071,0.0434 7.2231,0.0554 7.1401,0.0704 C7.1231,0.0734 7.1071,0.0764 7.0911,0.0794 C3.2741,0.8064 1.0741,6.8294 1.6041,15.1024 C1.6111,15.2014 1.6161,15.2984 1.6241,15.3974 C1.6331,15.5214 1.6451,15.6474 1.6551,15.7724 C0.8831,5.4664 4.5491,-0.3626 8.9861,0.1554 C9.0021,0.1524 9.0161,0.1484 9.0321,0.1454 C9.0341,0.1454 9.0361,0.1444 9.0381,0.1444 C9.0341,0.1434 9.0311,0.1434 9.0271,0.1424" id="Fill-25" fill="#E3007F"></path>
                <path d="M8.7059,0.2163 C8.7979,0.1943 8.8929,0.1753 8.9869,0.1553 C4.5499,-0.3627 0.8829,5.4673 1.6549,15.7723 C1.6739,16.0053 1.6919,16.2373 1.7129,16.4723 C1.0599,6.7113 3.4649,0.8263 8.7059,0.2163" id="Fill-27" fill="#C60070"></path>
                <path d="M1.7128,16.4723 C1.6918,16.2373 1.6738,16.0053 1.6548,15.7723 C1.6718,16.0033 1.6908,16.2363 1.7128,16.4723" id="Fill-29" fill="#C60070"></path>
                <path d="M8.7059,0.2163 C3.4649,0.8263 1.0599,6.7113 1.7129,16.4723 C1.0609,6.7163 3.7979,1.4003 8.7059,0.2163" id="Fill-31" fill="#921574"></path>
                <g id="Group-35" transform="translate(25.000000, 17.000000)">
                    <mask id="mask-6" fill="white">
                        <use xlink:href="#path-5"></use>
                    </mask>
                    <g id="Clip-34"></g>
                    <path d="M0.0791,0.5753 C0.0761,0.5363 0.0731,0.4973 0.0701,0.4583 C0.0591,0.3673 0.0481,0.2783 0.0351,0.1903 C0.0521,0.3163 0.0661,0.4453 0.0791,0.5753" id="Fill-33" fill="#322C32" mask="url(#mask-6)"></path>
                </g>
                <g id="Group-38" transform="translate(25.000000, 17.000000)">
                    <mask id="mask-8" fill="white">
                        <use xlink:href="#path-7"></use>
                    </mask>
                    <g id="Clip-37"></g>
                    <path d="M0.0919,0.7993 C0.0769,0.6273 0.0589,0.4563 0.0399,0.2863 C0.0319,0.2323 0.0239,0.1793 0.0159,0.1273 C0.0449,0.3403 0.0699,0.5643 0.0919,0.7993" id="Fill-36" fill="#322C32" mask="url(#mask-8)"></path>
                </g>
                <g id="Group-41" transform="translate(25.000000, 17.000000)">
                    <mask id="mask-10" fill="white">
                        <use xlink:href="#path-9"></use>
                    </mask>
                    <g id="Clip-40"></g>
                    <path d="M0.0348,0.1905 C0.0328,0.1735 0.0298,0.1565 0.0278,0.1395 C0.0288,0.1475 0.0298,0.1555 0.0308,0.1635 C0.0318,0.1725 0.0338,0.1815 0.0348,0.1905" id="Fill-39" fill="#403384" mask="url(#mask-10)"></path>
                </g>
                <g id="Group-44" transform="translate(24.000000, 16.000000)">
                    <mask id="mask-12" fill="white">
                        <use xlink:href="#path-11"></use>
                    </mask>
                    <g id="Clip-43"></g>
                    <path d="M1.0146,1.0635 C1.0196,1.0965 1.0256,1.1295 1.0306,1.1635 C1.0296,1.1555 1.0286,1.1475 1.0276,1.1395 C1.0166,1.0595 1.0056,0.9805 0.9926,0.9015 C0.9996,0.9555 1.0076,1.0095 1.0146,1.0635" id="Fill-42" fill="#403384" mask="url(#mask-12)"></path>
                </g>
                <g id="Group-47" transform="translate(24.000000, 16.000000)">
                    <mask id="mask-14" fill="white">
                        <use xlink:href="#path-13"></use>
                    </mask>
                    <g id="Clip-46"></g>
                    <path d="M0.9929,0.9018 C0.9579,0.6828 0.9169,0.4718 0.8709,0.2678 C0.8929,0.3838 0.9159,0.4998 0.9359,0.6198 C0.9459,0.6738 0.9549,0.7288 0.9649,0.7848 C0.9829,0.8758 0.9989,0.9688 1.0149,1.0638 C1.0079,1.0088 0.9999,0.9558 0.9929,0.9018" id="Fill-45" fill="#403384" mask="url(#mask-14)"></path>
                </g>
                <path d="M24.9515,16.7195 C24.9465,16.6865 24.9415,16.6525 24.9365,16.6195 C24.8995,16.4115 24.8585,16.2145 24.8135,16.0265 C24.8065,16.0025 24.8005,15.9775 24.7945,15.9525 C24.7915,15.9405 24.7875,15.9275 24.7845,15.9155 C24.6895,15.5555 24.5765,15.2205 24.4485,14.9045 C23.2815,12.1745 20.7665,12.1275 17.1515,9.1345 C13.6485,6.2345 13.0425,2.8845 10.9805,1.1355 C10.4075,0.6935 9.8045,0.3555 9.1655,0.1755 C9.4095,0.2445 9.6285,0.3375 9.8255,0.4505 C12.6635,2.0785 11.0585,8.0175 16.0875,11.3885 C19.8245,13.8935 24.1555,12.2165 24.9975,17.0225 C24.9835,16.9205 24.9675,16.8195 24.9515,16.7195" id="Fill-48" fill="#403384"></path>
                <g id="Group-52" transform="translate(25.000000, 17.000000)">
                    <mask id="mask-16" fill="white">
                        <use xlink:href="#path-15"></use>
                    </mask>
                    <g id="Clip-51"></g>
                    <path d="M0.0146,0.0635 C0.0236,0.1375 0.0316,0.2125 0.0396,0.2865 C0.0456,0.3285 0.0516,0.3695 0.0576,0.4125 C0.0486,0.3295 0.0396,0.2465 0.0306,0.1635 C0.0256,0.1295 0.0196,0.0965 0.0146,0.0635" id="Fill-50" fill="#403384" mask="url(#mask-16)"></path>
                </g>
                <g id="Group-55" transform="translate(24.000000, 16.000000)">
                    <mask id="mask-18" fill="white">
                        <use xlink:href="#path-17"></use>
                    </mask>
                    <g id="Clip-54"></g>
                    <path d="M0.9644,0.7851 C0.9824,0.8961 0.9994,1.0101 1.0154,1.1271 C1.0244,1.1791 1.0324,1.2331 1.0394,1.2871 C1.0314,1.2121 1.0234,1.1371 1.0144,1.0631 C0.9994,0.9691 0.9824,0.8761 0.9644,0.7851" id="Fill-53" fill="#403384" mask="url(#mask-18)"></path>
                </g>
                <g id="Group-58" transform="translate(24.000000, 16.000000)">
                    <mask id="mask-20" fill="white">
                        <use xlink:href="#path-19"></use>
                    </mask>
                    <g id="Clip-57"></g>
                    <path d="M0.8131,0.027 C0.8581,0.214 0.8991,0.412 0.9361,0.619 C0.9161,0.5 0.8931,0.384 0.8701,0.268 C0.8521,0.186 0.8331,0.106 0.8131,0.027" id="Fill-56" fill="#38408A" mask="url(#mask-20)"></path>
                </g>
                <path d="M18.0754,7.0584 C16.0644,5.8074 12.9284,1.1804 9.1654,0.1754 C9.8974,0.3824 10.4954,0.7574 10.9944,1.1804 C13.0574,2.9294 13.6484,6.2344 17.1514,9.1344 C20.7664,12.1274 23.2814,12.1744 24.4484,14.9044 C24.5774,15.2054 24.6894,15.5404 24.7844,15.9154 C24.7884,15.9274 24.7914,15.9404 24.7944,15.9524 C24.8004,15.9774 24.8074,16.0014 24.8134,16.0274 C24.8334,16.1064 24.8524,16.1864 24.8704,16.2674 C23.9024,11.2764 20.7694,8.7344 18.0754,7.0584" id="Fill-59" fill="#38408A"></path>
                <g id="Group-63" transform="translate(24.000000, 15.000000)">
                    <mask id="mask-22" fill="white">
                        <use xlink:href="#path-21"></use>
                    </mask>
                    <g id="Clip-62"></g>
                    <path d="M0.7944,0.9528 C0.7914,0.9398 0.7884,0.9278 0.7844,0.9148 C0.7884,0.9278 0.7914,0.9398 0.7944,0.9528" id="Fill-61" fill="#38408A" mask="url(#mask-22)"></path>
                </g>
                <g id="Group-66" transform="translate(24.000000, 16.000000)">
                    <mask id="mask-24" fill="white">
                        <use xlink:href="#path-23"></use>
                    </mask>
                    <g id="Clip-65"></g>
                    <path d="M0.9515,0.7195 C0.9565,0.7405 0.9595,0.7635 0.9645,0.7855 C0.9555,0.7295 0.9455,0.6735 0.9365,0.6195 C0.9415,0.6525 0.9465,0.6865 0.9515,0.7195" id="Fill-64" fill="#38408A" mask="url(#mask-24)"></path>
                </g>
                <g id="Group-69" transform="translate(24.000000, 16.000000)">
                    <mask id="mask-26" fill="white">
                        <use xlink:href="#path-25"></use>
                    </mask>
                    <g id="Clip-68"></g>
                    <path d="M0.9644,0.7851 C0.9604,0.7631 0.9564,0.7411 0.9514,0.7191 C0.9674,0.8191 0.9834,0.9201 0.9984,1.0221 C1.0044,1.0571 1.0104,1.0921 1.0154,1.1271 C0.9994,1.0101 0.9824,0.8961 0.9644,0.7851" id="Fill-67" fill="#38408A" mask="url(#mask-26)"></path>
                </g>
                <path d="M1.2583,34.9061 L0.5313,34.9061 L0.5313,32.2921 L1.2583,32.2921 C2.0733,32.2921 2.6423,32.8301 2.6423,33.6081 C2.6423,34.3721 2.0733,34.9061 1.2583,34.9061 M1.2583,31.7801 L0.2663,31.7801 C0.1223,31.7801 0.0003,31.9021 0.0003,32.0461 L0.0003,35.1521 C0.0003,35.2961 0.1223,35.4181 0.2663,35.4181 L1.2583,35.4181 C2.3733,35.4181 3.1833,34.6531 3.1833,33.5901 C3.1833,32.5411 2.3733,31.7801 1.2583,31.7801" id="Fill-70" fill="#322C32"></path>
                <path d="M4.3533,33.8566 C4.7893,33.8566 5.1313,33.5446 5.1313,33.1396 C5.1313,32.8176 4.9223,32.5816 4.5713,32.4876 L5.0543,31.9356 C5.0753,31.9096 5.1113,31.8556 5.1113,31.7876 C5.1113,31.6746 5.0213,31.5856 4.9063,31.5856 L3.7943,31.5856 C3.6783,31.5856 3.5833,31.6796 3.5833,31.7966 C3.5833,31.9126 3.6763,32.0046 3.7943,32.0046 L4.4523,32.0046 L4.0093,32.5136 C3.9953,32.5306 3.9523,32.5826 3.9523,32.6566 C3.9523,32.7696 4.0453,32.8616 4.1603,32.8616 L4.2303,32.8616 C4.4563,32.8616 4.6983,32.9366 4.6983,33.1506 C4.6983,33.3406 4.5213,33.4436 4.3553,33.4436 C4.1643,33.4436 4.0123,33.3676 3.8783,33.2066 C3.8383,33.1576 3.7743,33.1276 3.7103,33.1276 C3.5933,33.1276 3.4973,33.2236 3.4973,33.3416 C3.4973,33.3976 3.5223,33.4446 3.5483,33.4806 C3.7483,33.7226 4.0333,33.8566 4.3533,33.8566" id="Fill-72" fill="#322C32"></path>
                <path d="M5.9014,31.761 C5.7554,31.761 5.6354,31.88 5.6354,32.027 L5.6354,35.172 C5.6354,35.316 5.7574,35.438 5.9014,35.438 C6.0454,35.438 6.1664,35.316 6.1664,35.172 L6.1664,32.027 C6.1664,31.883 6.0454,31.761 5.9014,31.761" id="Fill-74" fill="#322C32"></path>
                <path d="M9.8214,31.761 C9.6774,31.761 9.5604,31.878 9.5604,32.022 L9.5604,34.444 L7.5494,31.892 C7.4854,31.808 7.4054,31.766 7.3144,31.766 L7.2754,31.766 C7.1314,31.766 7.0094,31.888 7.0094,32.032 L7.0094,35.177 C7.0094,35.32 7.1264,35.438 7.2704,35.438 C7.4144,35.438 7.5314,35.32 7.5314,35.177 L7.5314,32.692 L9.5874,35.299 C9.6164,35.336 9.6954,35.433 9.8404,35.433 C9.9734,35.433 10.0824,35.322 10.0824,35.186 L10.0824,32.022 C10.0824,31.878 9.9654,31.761 9.8214,31.761" id="Fill-76" fill="#322C32"></path>
                <g id="Group-80" transform="translate(2.000000, 36.000000)">
                    <mask id="mask-28" fill="white">
                        <use xlink:href="#path-27"></use>
                    </mask>
                    <g id="Clip-79"></g>
                    <path d="M3.7209,1.9202 L2.5609,1.9202 C2.4199,1.9202 2.3049,2.0352 2.3049,2.1762 C2.3049,2.3172 2.4199,2.4322 2.5609,2.4322 L3.4649,2.4322 L3.4649,3.1872 C3.2569,3.3442 2.9189,3.4982 2.5369,3.4982 C1.7489,3.4982 1.2399,2.9582 1.2399,2.1142 C1.2399,1.3392 1.7749,0.7542 2.4849,0.7542 C2.9409,0.7542 3.1969,0.9032 3.3999,1.0602 C3.5769,1.2132 3.8339,1.0632 3.8339,0.8632 C3.8339,0.7802 3.7979,0.7052 3.7289,0.6492 C3.3549,0.3672 2.9869,0.2462 2.4979,0.2462 C1.3719,0.2462 0.6989,1.2012 0.6989,2.1332 C0.6989,3.2322 1.4509,4.0002 2.5269,4.0002 C3.1239,4.0002 3.5729,3.7492 3.8489,3.5372 C3.9379,3.4642 3.9869,3.3742 3.9869,3.2842 L3.9869,2.1862 C3.9869,2.0392 3.8669,1.9202 3.7209,1.9202" id="Fill-78" fill="#322C32" mask="url(#mask-28)"></path>
                </g>
                <g id="Group-83" transform="translate(6.000000, 36.000000)">
                    <mask id="mask-30" fill="white">
                        <use xlink:href="#path-29"></use>
                    </mask>
                    <g id="Clip-82"></g>
                    <path d="M2.258,3.4931 C1.533,3.4931 0.965,2.8911 0.965,2.1141 C0.965,1.3391 1.517,0.7541 2.248,0.7541 C2.973,0.7541 3.541,1.3551 3.541,2.1331 C3.541,2.9081 2.989,3.4931 2.258,3.4931 M2.258,0.2471 C1.23,0.2471 0.425,1.0711 0.425,2.1331 C0.425,3.1971 1.209,4.0001 2.248,4.0001 C3.277,4.0001 4.082,3.1751 4.082,2.1141 C4.082,1.0501 3.298,0.2471 2.258,0.2471" id="Fill-81" fill="#322C32" mask="url(#mask-30)"></path>
                </g>
                <path d="M12.6302,39.3156 C12.5742,39.2656 12.4902,39.2716 12.4402,39.3266 C12.3142,39.4676 12.1792,39.5366 12.0272,39.5366 C11.7502,39.5366 11.5322,39.3046 11.5322,39.0016 C11.5322,38.7086 11.7442,38.4796 12.0152,38.4796 C12.1882,38.4796 12.3052,38.5636 12.4292,38.6906 C12.4542,38.7166 12.4892,38.7316 12.5252,38.7316 C12.5612,38.7316 12.5962,38.7166 12.6212,38.6906 L12.7272,38.5826 C12.7782,38.5306 12.7772,38.4476 12.7272,38.3956 C12.5822,38.2446 12.3712,38.0726 12.0182,38.0726 C11.5142,38.0726 11.1042,38.4916 11.1042,39.0136 C11.1042,39.5266 11.5142,39.9436 12.0182,39.9436 C12.3932,39.9436 12.6122,39.7446 12.7432,39.5956 C12.7662,39.5696 12.7772,39.5376 12.7772,39.5066 C12.7772,39.4696 12.7612,39.4326 12.7322,39.4056 L12.6302,39.3156 Z" id="Fill-84" fill="#322C32"></path>
                <path d="M13.904,38.4796 C14.182,38.4796 14.4,38.7116 14.4,39.0136 C14.4,39.3116 14.189,39.5366 13.91,39.5366 C13.633,39.5366 13.415,39.3046 13.415,39.0086 L13.415,39.0016 C13.415,38.7036 13.625,38.4796 13.904,38.4796 M13.91,38.0716 C13.392,38.0716 12.987,38.4836 12.987,39.0136 C12.987,39.5346 13.39,39.9436 13.904,39.9436 C14.413,39.9436 14.828,39.5236 14.828,39.0086 L14.828,39.0016 C14.828,38.4806 14.425,38.0716 13.91,38.0716" id="Fill-86" fill="#322C32"></path>
                <path d="M17.0246,38.0721 C16.8076,38.0721 16.6216,38.1511 16.4786,38.3031 C16.3486,38.1541 16.1666,38.0721 15.9566,38.0721 C15.7916,38.0721 15.6656,38.1191 15.5686,38.1861 C15.5466,38.1401 15.5006,38.1081 15.4466,38.1081 L15.2996,38.1081 C15.2256,38.1081 15.1646,38.1691 15.1646,38.2431 L15.1646,39.7731 C15.1646,39.8471 15.2256,39.9081 15.2996,39.9081 L15.4466,39.9081 C15.5206,39.9081 15.5816,39.8471 15.5816,39.7731 L15.5816,38.8911 C15.5816,38.6581 15.7366,38.4761 15.9356,38.4761 C16.2176,38.4761 16.2476,38.7411 16.2476,38.8551 L16.2476,39.7731 C16.2476,39.8471 16.3086,39.9081 16.3826,39.9081 L16.5296,39.9081 C16.6036,39.9081 16.6646,39.8471 16.6646,39.7731 L16.6646,38.8821 C16.6646,38.6011 16.8386,38.4761 17.0126,38.4761 C17.2766,38.4761 17.3316,38.6871 17.3316,38.8641 L17.3316,39.7731 C17.3316,39.8471 17.3916,39.9081 17.4656,39.9081 L17.6126,39.9081 C17.6866,39.9081 17.7466,39.8471 17.7466,39.7731 L17.7466,38.8461 C17.7466,38.3831 17.4566,38.0721 17.0246,38.0721" id="Fill-88" fill="#322C32"></path>
                <g id="Group-92" transform="translate(10.000000, 39.000000)">
                    <mask id="mask-32" fill="white">
                        <use xlink:href="#path-31"></use>
                    </mask>
                    <g id="Clip-91"></g>
                    <path d="M0.583,0.4755 C0.457,0.4755 0.354,0.5785 0.354,0.7045 C0.354,0.8305 0.457,0.9335 0.583,0.9335 C0.709,0.9335 0.812,0.8305 0.812,0.7045 C0.812,0.5785 0.709,0.4755 0.583,0.4755" id="Fill-90" fill="#322C32" mask="url(#mask-32)"></path>
                </g>
            </g>
            <g id="Group-100" transform="translate(1.000000, 0.000000)">
                <g id="Group-96">
                    <mask id="mask-34" fill="white">
                        <use xlink:href="#path-33"></use>
                    </mask>
                    <g id="Clip-95"></g>
                    <path d="M16.1505,15.1202 L14.1095,11.4432 C14.1045,11.4352 13.6515,10.6522 13.6515,9.6562 L13.6515,7.9212 C14.7525,8.1692 15.9185,9.2622 16.4245,9.8332 L16.4455,14.3752 C16.4475,14.6542 16.3405,14.9162 16.1505,15.1202 Z M9.9345,9.8362 C10.4515,9.2752 11.6135,8.2202 12.7045,7.9392 L12.7045,9.6562 C12.7045,10.6522 12.2515,11.4352 12.2405,11.4542 L10.2275,15.0822 C10.0615,14.8892 9.9575,14.6432 9.9555,14.3712 L9.9345,9.8362 Z M8.4095,11.8432 L8.9975,11.8432 L9.0075,14.0562 L8.4095,14.0562 L8.4095,11.8432 Z M8.4095,9.9482 L8.9885,9.9482 L8.9925,10.8962 L8.4095,10.8962 L8.4095,9.9482 Z M10.2355,5.2952 C10.4415,5.0882 10.7155,4.9732 11.0065,4.9732 L12.7045,4.9732 L12.7045,6.9752 C11.6375,7.1712 10.6115,7.9172 9.9285,8.5242 L9.9175,6.0682 C9.9155,5.7772 10.0285,5.5032 10.2355,5.2952 Z M13.2875,11.9142 L15.2615,15.4702 L11.0945,15.4702 L13.0615,11.9272 C13.0675,11.9162 13.1145,11.8362 13.1775,11.7022 C13.2395,11.8312 13.2835,11.9072 13.2875,11.9142 Z M16.4065,6.0732 L16.4185,8.4892 C15.7385,7.8712 14.7235,7.1262 13.6515,6.9582 L13.6515,4.9732 L15.3025,4.9732 C15.9085,4.9732 16.4035,5.4662 16.4065,6.0732 Z M17.3535,6.0682 C17.3485,4.9422 16.4275,4.0262 15.3025,4.0262 L11.0065,4.0262 C10.4625,4.0262 9.9495,4.2402 9.5645,4.6272 C9.1785,5.0152 8.9675,5.5282 8.9705,6.0732 L8.9715,6.3002 L7.7735,6.3002 L7.7735,5.2852 C7.7735,5.0232 7.5615,4.8112 7.3005,4.8112 C7.0395,4.8112 6.8275,5.0232 6.8275,5.2852 L6.8275,7.8222 C6.8275,8.0842 7.0395,8.2962 7.3005,8.2962 C7.5615,8.2962 7.7735,8.0842 7.7735,7.8222 L7.7735,7.2472 L8.9755,7.2472 L8.9845,9.0012 L7.3005,9.0012 C7.0395,9.0012 6.8275,9.2132 6.8275,9.4752 C6.8275,9.7362 7.0395,9.9482 7.3005,9.9482 L7.4625,9.9482 L7.4625,10.8962 L7.3005,10.8962 C7.0395,10.8962 6.8275,11.1082 6.8275,11.3692 C6.8275,11.6312 7.0395,11.8432 7.3005,11.8432 L7.4625,11.8432 L7.4625,14.0562 L7.3005,14.0562 C7.0395,14.0562 6.8275,14.2682 6.8275,14.5302 C6.8275,14.7912 7.0395,15.0032 7.3005,15.0032 L9.1125,15.0032 C9.3815,15.8222 10.1535,16.4172 11.0605,16.4172 L15.3555,16.4172 C15.9005,16.4172 16.4125,16.2032 16.7985,15.8162 C17.1845,15.4292 17.3945,14.9152 17.3925,14.3712 L17.3535,6.0682 Z" id="Fill-94" fill="#FFFFFF" mask="url(#mask-34)"></path>
                </g>
                <g id="Group-99">
                    <mask id="mask-36" fill="white">
                        <use xlink:href="#path-35"></use>
                    </mask>
                    <g id="Clip-98"></g>
                    <path d="M8.9024,22.5518 L8.9024,19.8618 C8.9024,19.3818 9.4044,18.9758 9.9994,18.9758 L14.2464,18.9758 C14.8404,18.9758 15.3434,19.3818 15.3434,19.8618 L15.3434,22.5518 L12.5834,22.5518 L12.5834,21.4228 L13.7594,21.4228 C14.0214,21.4228 14.2334,21.2108 14.2334,20.9498 C14.2334,20.6878 14.0214,20.4758 13.7594,20.4758 L12.5834,20.4758 L12.5834,20.1058 C12.5834,19.8448 12.3714,19.6328 12.1094,19.6328 C11.8484,19.6328 11.6364,19.8448 11.6364,20.1058 L11.6364,20.4758 L10.4594,20.4758 C10.1984,20.4758 9.9864,20.6878 9.9864,20.9498 C9.9864,21.2108 10.1984,21.4228 10.4594,21.4228 L11.6364,21.4228 L11.6364,22.5518 L8.9024,22.5518 Z M16.5204,25.6838 C16.7814,25.6838 16.9934,25.4718 16.9934,25.2098 C16.9934,24.9488 16.7814,24.7368 16.5204,24.7368 L12.5834,24.7368 L12.5834,24.1988 L12.5834,23.8598 L12.5834,23.4988 L15.3434,23.4988 L15.3434,23.6588 C15.3434,23.9198 15.5554,24.1318 15.8164,24.1318 C16.0784,24.1318 16.2904,23.9198 16.2904,23.6588 L16.2904,19.8618 C16.2904,18.8518 15.3734,18.0298 14.2464,18.0298 L9.9994,18.0298 C8.8724,18.0298 7.9554,18.8518 7.9554,19.8618 L7.9554,23.6588 C7.9554,23.9198 8.1674,24.1318 8.4294,24.1318 C8.6904,24.1318 8.9024,23.9198 8.9024,23.6588 L8.9024,23.4988 L11.6364,23.4988 L11.6364,23.8598 L11.6364,24.1988 L11.6364,24.7368 L7.6994,24.7368 C7.4374,24.7368 7.2254,24.9488 7.2254,25.2098 C7.2254,25.4718 7.4374,25.6838 7.6994,25.6838 L11.6364,25.6838 L11.6364,26.3418 C7.5414,26.6578 7.4134,31.1018 7.4134,31.1488 C7.4084,31.4098 7.6164,31.6258 7.8784,31.6298 C7.8804,31.6308 7.8834,31.6308 7.8864,31.6308 C8.1444,31.6308 8.3554,31.4238 8.3594,31.1648 C8.3624,31.0128 8.4624,27.6018 11.6364,27.2948 L11.6364,29.5078 C11.6364,29.7688 11.8484,29.9808 12.1094,29.9808 C12.3714,29.9808 12.5834,29.7688 12.5834,29.5078 L12.5834,27.2948 C15.7384,27.6028 15.8564,31.0058 15.8594,31.1658 C15.8644,31.4238 16.0754,31.6308 16.3324,31.6308 C16.3354,31.6308 16.3384,31.6308 16.3414,31.6298 C16.6024,31.6258 16.8104,31.4098 16.8064,31.1488 C16.8054,31.1018 16.6774,26.6578 12.5834,26.3418 L12.5834,25.6838 L16.5204,25.6838 Z" id="Fill-97" fill="#FFFFFF" mask="url(#mask-36)"></path>
                </g>
            </g>
        </g>
    </g>
</svg>