<?xml version="1.0" encoding="utf-8"?>
<!-- Generator: Adobe Illustrator 21.0.0, SVG Export Plug-In . SVG Version: 6.00 Build 0)  -->
<svg version="1.1" id="图层_1" xmlns="http://www.w3.org/2000/svg" xmlns:xlink="http://www.w3.org/1999/xlink" x="0px" y="0px"
	 viewBox="0 0 1024 1024" style="enable-background:new 0 0 1024 1024;" xml:space="preserve">
<style type="text/css">
	.st0{fill:#00101D;}
	.st1{fill:#E2933D;}
	.st2{fill:#4D448F;}
	.st3{fill:#006CAC;}
	.st4{fill:#693385;}
	.st5{fill:#A50D73;}
	.st6{fill:#1D7FB7;}
	.st7{fill:#D6C347;}
	.st8{fill:#C60070;}
	.st9{fill:#921574;}
	.st10{fill:#DF803A;}
	.st11{fill:#523386;}
	.st12{fill:#E63178;}
	.st13{fill:#3CA0CD;}
	.st14{fill:#353386;}
</style>
<g>
	<g>
		<rect x="369.1" y="749.1" class="st0" width="11.1" height="23"/>
		<path class="st0" d="M394.2,738.2c-7.3-9.9-11.6-20.1-12.9-30.5h47.5v-10.4h-48v-15.1h-11.7v15.1h-48.7v10.4h48
			c-3.1,15.2-9.6,27.8-19.5,37.8c-8.7,8.8-18.3,14.4-28.8,16.8v11c4.5-0.6,8.1-1.3,10.8-2.3c7.5-2.6,14.6-6.9,21.3-12.7
			c8.6-7.5,16.2-17.2,22.7-29.1c9.8,17.8,21.6,30.5,35.3,38.2c4.9,2.7,11.3,4.7,19.3,5.9v-11C415.1,758.8,403.3,750.7,394.2,738.2z"
			/>
		<path class="st0" d="M481.8,728.2c2.3,2,5.5,3.2,17.2,3.4v-9.7c-9.4,0-10.3-1.3-10.3-3.9V684h-10.9v34.3c0,2.2,0.2,3.8,0.5,5
			C479,725.1,480.1,726.7,481.8,728.2z"/>
		<path class="st0" d="M568.5,723.2c0.4-1.1,0.5-2.8,0.5-5V684h-10.9V718c0,2.6-0.9,3.9-10.3,3.9v9.7c11.7-0.2,14.9-1.4,17.2-3.4
			C566.7,726.7,567.9,725.1,568.5,723.2z"/>
		<path class="st0" d="M545,750.7c-10.4-8.9-15.7-20.8-15.7-35.9v-32.7h-11.1v31.6c0,9.3-1.9,17.4-5.6,24.3
			c-4.6,8.5-11.5,15-20.8,19.5c-5.7,2.7-13.1,4.8-22.1,6.1v9.8c9.6-1,17.2-2.6,22.7-4.7c8.4-3.3,15.6-8,21.7-14.2
			c3.2-3.3,6.5-7.9,9.8-14c2.2,4.2,4.4,7.7,6.5,10.3c4.6,5.6,10.5,10.4,18,14.5c8.5,4.6,18.3,7.4,29.3,8.1v-9.7
			c-5.5-0.9-9.5-1.6-12.1-2.3C557.7,759.1,550.8,755.6,545,750.7z"/>
		<rect x="622.5" y="745" class="st0" width="88.7" height="9.9"/>
		<path class="st0" d="M725.6,730c-2.4-2-5.4-3-8.8-3h-78.7c-1.6,0-2.8-0.3-3.4-1c-0.5-0.5-0.7-1.3-0.7-2.6v-19.8
			c0-1.2,0.4-2.3,1.1-3.2c1-1.2,2.5-1.9,4.4-1.9H712c2.3,0,3.5,1.1,3.5,3.2v7.9c0,0.6-0.2,1.3-0.7,2c-0.6,0.7-1.4,1.1-2.3,1.1H709
			v9.8h7c2.6,0,4.8-0.6,6.7-1.9c2.4-1.6,3.5-4,3.5-7.3v-16.2c0-2.2-1-4.2-2.9-5.9c-2-1.7-4.9-2.6-8.5-2.6h-57.3v-6.5h-10.9v6.5H644
			h-7.4c0,0-1.7,0.2-3.4,0.8c-2.4,0.9-4.1,1.7-5.1,2.5c-3.4,2.6-5.1,6.1-5.1,10.4v25.1c0,2.7,0.9,4.9,2.7,6.7
			c1.9,1.8,4.5,2.7,7.9,2.7h77.8c2,0,3.7,0.5,4.8,1.4c1.4,1.1,2.1,2.6,2.1,4.3v17.9c0,1.9-1,2.8-2.9,2.8h-92.9v10h96.8
			c2.6,0,4.9-0.8,6.8-2.4c2-1.7,3.1-4.1,3.1-7.2v-26.2C729.2,734.5,728,732,725.6,730z"/>
		<rect x="646.7" y="708" class="st0" width="54" height="9.9"/>
	</g>
	<g>
		<polygon class="st0" points="191.8,555.8 112,555.8 112,570.3 144.3,570.3 144.3,646.5 159,646.5 159,570.3 191.8,570.3 		"/>
		<path class="st0" d="M209.7,555.1l-30.5,91.4h15.3l6-17.9h43.4l5.8,17.9h15.5l-30.5-91.4H209.7z M205.1,614.6l17-52.7l17.3,52.7
			H205.1z"/>
		<rect x="276.2" y="555.8" class="st0" width="14.7" height="90.7"/>
		<polygon class="st0" points="367.2,591.7 321.4,591.7 321.4,555.8 306.5,555.8 306.5,646.5 321.4,646.5 321.4,606.4 367.2,606.4 
			367.2,646.5 382,646.5 382,555.8 367.2,555.8 		"/>
		<path class="st0" d="M456.4,611.5c0,6.9-1.4,12-4.3,15.3c-3.1,3.6-8.3,5.3-15.7,5.3h-5.5c-7.3,0-12.4-1.7-15.4-5
			c-3-3.3-4.5-8.5-4.5-15.6v-55.8h-14.8v56.1c0,11.4,2.4,20,7.1,25.6c5.4,6.5,14.4,9.7,26.8,9.7h7c12.6,0,21.6-3.3,27-9.8
			c4.7-5.6,7-14.1,7-25.5v-56.1h-14.8V611.5z"/>
		<path class="st0" d="M528.7,555.1h-10c-23.7,0-35.6,12.1-35.6,36.2v19.6c0,24.2,11.9,36.3,35.6,36.3h10
			c23.8,0,35.7-12.1,35.7-36.3l-0.1-19.6C564.3,567.1,552.4,555.1,528.7,555.1z M544.6,627.3c-3.3,3.5-8.8,5.2-16.6,5.2h-8.8
			c-7.7,0-13.2-1.7-16.4-5.2c-3.2-3.5-4.8-9.2-4.8-17.3v-18c0-8.2,1.6-13.9,4.8-17.3c3.2-3.4,8.7-5.1,16.5-5.1h8.7
			c7.9,0,13.4,1.7,16.6,5.2c3.2,3.5,4.8,9.2,4.8,17.1l0.1,18C549.6,618.1,547.9,623.8,544.6,627.3z"/>
		<polygon class="st0" points="636.9,629.5 596.8,555.8 576.7,555.8 576.7,646.5 591.2,646.5 591.2,572.2 631.5,646.5 651.5,646.5 
			651.5,555.8 636.9,555.8 		"/>
		<rect x="666.5" y="555.8" class="st0" width="14.7" height="90.7"/>
		<path class="st0" d="M722.7,555.1l-30.5,91.4h15.2l6-17.9h43.4l5.8,17.9h15.5l-30.5-91.4H722.7z M718.1,614.6l17-52.7l17.2,52.7
			H718.1z"/>
		<path class="st0" d="M825.1,555.1h-10c-23.7,0-35.6,12.1-35.6,36.2v19.6c0,24.2,11.9,36.3,35.6,36.3h10
			c23.8,0,35.7-12.1,35.7-36.3l-0.1-19.6C860.7,567.1,848.9,555.1,825.1,555.1z M841.1,627.3c-3.3,3.5-8.8,5.2-16.6,5.2h-8.8
			c-7.7,0-13.2-1.7-16.4-5.2c-3.2-3.5-4.8-9.2-4.8-17.3v-18c0-8.2,1.6-13.9,4.8-17.3c3.2-3.4,8.7-5.1,16.5-5.1h8.7
			c7.9,0,13.4,1.7,16.6,5.2c3.2,3.5,4.8,9.2,4.8,17.1l0.1,18C846.1,618.1,844.4,623.8,841.1,627.3z"/>
		<rect x="863.8" y="640.9" class="st0" width="5.7" height="6.3"/>
		<path class="st0" d="M899.7,588.4l-6.6,0c-8.1,0-12.2,4-12.2,12v3.4c0,8,4.1,12,12.2,12h6.6c8.2,0,12.3-4,12.3-12v-3.4
			C912,592.4,907.9,588.4,899.7,588.4z M907.1,603.7c0,2.6-0.6,4.5-1.8,5.5c-1.2,1.1-3.1,1.6-5.8,1.6h-6.1c-2.8,0-4.7-0.5-5.8-1.6
			c-1.1-1.1-1.7-3-1.7-5.6v-2.9c0-2.7,0.6-4.5,1.8-5.6c1.2-1.1,3.1-1.6,5.8-1.6l6.1,0c2.7,0,4.6,0.6,5.8,1.7c1.2,1.1,1.8,3,1.8,5.6
			V603.7z"/>
		<polygon class="st0" points="911.8,579.7 885.2,579.7 911.8,571.7 911.8,567.6 885.2,559.6 911.8,559.6 911.8,555.1 881.1,555.1 
			881.1,562.3 906.5,569.6 881.1,576.9 881.1,584.2 911.8,584.2 		"/>
		<path class="st0" d="M901.5,619.1v5.3c1.6,0.2,2.8,0.6,3.7,1.4c1.2,1.1,1.8,3,1.8,5.8v2.3c0,2.7-0.6,4.6-2,5.7
			c-1.3,1.2-3.3,1.8-6,1.8h-5.3c-2.6,0-4.5-0.6-5.9-1.8c-1.3-1.2-2-3.1-2-5.7v-2.3c0-2.7,0.7-4.6,2-5.8c1-0.9,2.3-1.3,4.1-1.4v-5.2
			c-3.4,0-6,0.9-7.9,2.7c-2.2,2-3.2,5.1-3.2,9.4v2.9c0,4.1,1.1,7.2,3.3,9.2c2.2,2,5.4,3,9.6,3h5.3c4.3,0,7.5-0.9,9.6-2.8
			c2.2-2,3.3-5.1,3.3-9.4v-2.9c0-4.5-1.1-7.8-3.4-9.7C907,620.1,904.6,619.3,901.5,619.1z"/>
	</g>
	<g>
		<path class="st0" d="M487.7,293.9c0-0.5,0-0.9,0.1-1.4c0-0.3,0-0.5,0.1-0.8c0-0.4,0.1-0.8,0.1-1.1c0-0.3,0-0.5,0.1-0.8
			c0-0.3,0.1-0.7,0.1-1c0-0.3,0.1-0.5,0.1-0.7c0-0.3,0.1-0.6,0.1-0.9c0-0.2,0.1-0.5,0.1-0.7c0-0.3,0.1-0.6,0.1-0.8
			c0-0.2,0.1-0.4,0.1-0.6c0-0.3,0.1-0.5,0.1-0.8c0-0.2,0.1-0.4,0.1-0.6c0-0.2,0.1-0.5,0.2-0.7c0-0.2,0.1-0.3,0.1-0.5
			c0.1-0.2,0.1-0.4,0.2-0.6c0-0.2,0.1-0.3,0.1-0.5c0.1-0.2,0.1-0.4,0.2-0.6c0-0.1,0.1-0.2,0.1-0.3c0.1-0.3,0.2-0.6,0.3-0.8
			c0-0.1,0.1-0.2,0.1-0.4c0.1-0.1,0.1-0.3,0.2-0.4c0-0.1,0.1-0.3,0.1-0.4c0-0.1,0.1-0.2,0.1-0.3c0-0.1,0.1-0.2,0.1-0.3
			c0-0.1,0.1-0.2,0.1-0.2c0.1-0.1,0.1-0.2,0.2-0.3c0,0,0-0.1,0-0.1c0,0,0,0,0,0c-35.5-11.3-44.7,28.5-44.7,28.5
			c4.1-12.6,19.8-21.9,41.5-8.8c0-0.8,0-1.5,0.1-2.2C487.7,294.4,487.7,294.1,487.7,293.9z"/>
		<path class="st1" d="M635.4,375.3c-0.5,0.7-1.1,1.4-1.6,2.1c-0.1,0.1-0.1,0.1-0.2,0.2c-0.2,0.2-0.3,0.4-0.5,0.7
			c2.5-0.4,5-0.9,7.3-1.4c16.5-3.8,29.5-10.8,39.4-18.6l0,0l0,0c2.2-3.1,21.6-33,3.9-89c-21.7-68.7-9.5-120.5-9.5-120.5
			c-29,57.4-10.5,101-12.3,145.4C660.4,330.7,649.6,356.7,635.4,375.3c0.1-0.1,0.2-0.2,0.2-0.3C635.5,375.1,635.5,375.2,635.4,375.3
			z"/>
		<path class="st2" d="M479.9,396.9c1.5-13.6,4.7-23,4.7-23c-7.8,6.9-17,12.2-25,20.1c0.3,0.1,0.7,0.1,1,0.2
			c6.1,1.3,11.7,2.1,17,2.5C478.4,396.8,479.1,396.9,479.9,396.9z"/>
		<path class="st3" d="M479.9,396.5c0,0.1,0,0.3,0,0.4c2.2,0.1,4.3,0.2,6.4,0.2c18.5,0,31.3-5.3,39.9-11.6c1.2-0.9,2.4-1.8,3.4-2.8
			c0.6-0.5,1.1-1,1.6-1.5c0.5-0.5,1-1,1.5-1.5c1.2-1.2,2.2-2.5,3.2-3.7c0.6-0.7,1.1-1.4,1.6-2.1c0.2-0.2,0.3-0.5,0.5-0.7
			c0.3-0.5,0.6-0.9,0.9-1.3c2.1-3.3,3.2-6.1,3.8-7.6l-57.9,9.6c0,0-3.2,9.4-4.7,23C479.9,396.8,479.9,396.7,479.9,396.5z"/>
		<path class="st4" d="M538.7,371.9c-0.3,0.4-0.6,0.9-0.9,1.3c-0.2,0.2-0.3,0.5-0.5,0.7c-0.5,0.7-1,1.4-1.6,2.1
			c-0.9,1.2-2,2.4-3.2,3.7c-0.5,0.5-1,1-1.5,1.5c-0.5,0.5-1,1-1.6,1.5c-1.1,1-2.2,1.9-3.4,2.8c-8.6,6.4-21.3,11.6-39.9,11.6
			c-2,0-4.2-0.1-6.4-0.2c0,0,0,0,0,0.1l0.3,0.1l3.6,0.8l10.1,2.2l0,0l47.4,10.2c-0.1-0.1-0.1-0.2-0.2-0.2c-6.4-8.9-7.6-23.1-0.9-39
			c1-2.3,1.8-4.5,2.5-6.7h0C542,365.8,540.8,368.6,538.7,371.9z"/>
		<path class="st5" d="M488.8,398.9l-2.7-0.6l-4.9-1.1l-1-0.2l84.6,67c-4.3-5.4-7.8-11.2-10.7-16.9c-0.1-0.2-0.2-0.3-0.3-0.5
			c0-0.1-0.1-0.1-0.1-0.2c-1-1.9-1.9-3.8-2.7-5.6l0,0c-0.3-0.6-0.6-1.3-0.8-1.9c0,0,0,0,0-0.1c-0.5-1.2-1-2.5-1.5-3.7
			c0-0.1-0.1-0.2-0.1-0.3c-0.2-0.5-0.4-1-0.6-1.5c0-0.1-0.1-0.1-0.1-0.2c-0.2-0.5-0.4-1.1-0.6-1.6c0-0.1-0.1-0.1-0.1-0.2
			c-0.2-0.5-0.4-1-0.6-1.6c0-0.1,0-0.1-0.1-0.2c-0.2-0.5-0.4-1.1-0.5-1.6c0-0.1-0.1-0.2-0.1-0.3c-0.2-0.5-0.3-0.9-0.4-1.4
			c0-0.1-0.1-0.3-0.1-0.4c-0.1-0.4-0.3-0.8-0.4-1.2c-0.1-0.2-0.1-0.4-0.2-0.6c-0.1-0.3-0.2-0.7-0.3-1c0-0.1,0-0.1-0.1-0.2
			c-0.4-1.5-0.8-2.9-1.2-4.3c0-0.1-0.1-0.2-0.1-0.3c-0.1-0.4-0.2-0.8-0.3-1.2c-0.7-2.6-1.1-4.9-1.5-6.6c-0.1-0.1-0.1-0.2-0.2-0.2
			L493.8,400L488.8,398.9z"/>
		<path class="st6" d="M542.6,364.3L542.6,364.3C542.6,364.3,542.6,364.3,542.6,364.3L491,277.2c0,0-0.1-0.1-0.1-0.1
			c0,0,0,0.1,0,0.1c-0.1,0.1-0.1,0.2-0.2,0.3c0,0.1-0.1,0.2-0.1,0.2c-0.1,0.1-0.1,0.2-0.1,0.3c0,0.1-0.1,0.2-0.1,0.3
			c-0.1,0.1-0.1,0.2-0.1,0.4c-0.1,0.1-0.1,0.3-0.2,0.4c0,0.1-0.1,0.2-0.1,0.4c-0.1,0.3-0.2,0.5-0.3,0.8c0,0.1-0.1,0.2-0.1,0.3
			c-0.1,0.2-0.1,0.4-0.2,0.6c0,0.1-0.1,0.3-0.1,0.5c0,0.2-0.1,0.4-0.2,0.6c0,0.2-0.1,0.3-0.1,0.5c-0.1,0.2-0.1,0.5-0.2,0.7
			c0,0.2-0.1,0.4-0.1,0.6c-0.1,0.3-0.1,0.5-0.1,0.8c0,0.2-0.1,0.4-0.1,0.6c0,0.3-0.1,0.5-0.1,0.8c0,0.2-0.1,0.5-0.1,0.7
			c0,0.3-0.1,0.6-0.1,0.9c0,0.2-0.1,0.5-0.1,0.7c0,0.3-0.1,0.7-0.1,1c0,0.3-0.1,0.5-0.1,0.8c0,0.4-0.1,0.8-0.1,1.1
			c0,0.3,0,0.5-0.1,0.8c0,0.4,0,0.9-0.1,1.4c0,0.2,0,0.5,0,0.7c0,0.7,0,1.5-0.1,2.2c8.9,5.1,20.7,17.4,20.7,30.5
			c0,25.3-13,37.3-23.7,46.6L542.6,364.3L542.6,364.3z"/>
		<path class="st7" d="M480.4,482.9c0.6,0.2,1.3,0.3,1.9,0.5c7.7,1.8,17.1,3.3,27.1,3.3c5,0,10.2-0.4,15.3-1.3c0,0,0,0,0,0v0
			c0,0,0,0-0.1,0c-0.3-0.1-0.5-0.2-0.8-0.3c-0.3-0.1-0.6-0.3-0.9-0.4c-0.1-0.1-0.2-0.1-0.4-0.2c0,0-0.1,0-0.1,0c0,0-0.1,0-0.1-0.1
			c-0.1,0-0.2-0.1-0.3-0.2c-0.4-0.2-0.7-0.4-1.1-0.5c-0.1,0-0.2-0.1-0.4-0.2c-0.1,0-0.1-0.1-0.2-0.1c-0.1,0-0.1-0.1-0.2-0.1
			c0,0-0.1,0-0.1,0c-0.4-0.2-0.8-0.4-1.2-0.6c-0.1-0.1-0.2-0.1-0.3-0.2c-0.1-0.1-0.2-0.1-0.3-0.2c-0.2-0.1-0.4-0.2-0.6-0.3
			c-0.2-0.1-0.4-0.2-0.5-0.3c-0.1-0.1-0.2-0.1-0.3-0.2c0,0,0,0,0,0c0,0,0,0,0,0c-0.1-0.1-0.3-0.2-0.4-0.2c-0.2-0.1-0.3-0.2-0.5-0.3
			h0c0,0,0,0,0,0c-0.2-0.1-0.5-0.3-0.7-0.4c0,0-0.1-0.1-0.2-0.1c0,0,0,0,0,0c0,0-0.1-0.1-0.2-0.1c0,0-0.1-0.1-0.1-0.1
			c-0.4-0.2-0.7-0.4-1-0.7c-0.1-0.1-0.3-0.2-0.4-0.3c-0.6-0.4-1.1-0.7-1.7-1.1c0,0-0.1,0-0.1-0.1c0,0-0.1,0-0.1-0.1
			c-0.2-0.1-0.3-0.2-0.5-0.3c-0.2-0.2-0.4-0.3-0.7-0.5c-0.1-0.1-0.3-0.2-0.4-0.3c-0.1-0.1-0.2-0.1-0.3-0.2c-0.2-0.2-0.4-0.3-0.7-0.5
			c-0.1,0-0.1-0.1-0.2-0.1c-0.1-0.1-0.2-0.1-0.2-0.2c-0.1-0.1-0.2-0.1-0.3-0.2c0,0-0.1-0.1-0.1-0.1c-0.2-0.2-0.4-0.3-0.7-0.5
			c0,0,0,0,0,0c-0.2-0.1-0.3-0.3-0.5-0.4c-0.1-0.1-0.2-0.1-0.3-0.2c-0.1-0.1-0.1-0.1-0.2-0.2c-0.3-0.2-0.5-0.4-0.8-0.6
			c0,0-0.1-0.1-0.1-0.1c-0.1,0-0.1-0.1-0.2-0.1c-0.1-0.1-0.1-0.1-0.2-0.2c-0.1-0.1-0.2-0.2-0.3-0.2c-0.3-0.3-0.6-0.5-0.9-0.8
			c0-0.1-0.1-0.1-0.2-0.1c0,0-0.1-0.1-0.1-0.1c-0.1-0.1-0.2-0.2-0.3-0.3c-0.3-0.3-0.7-0.6-1-0.9c0,0,0,0-0.1,0c0,0,0,0-0.1-0.1
			c0,0,0,0,0,0c-0.1-0.1-0.2-0.2-0.3-0.3c-0.4-0.3-0.7-0.7-1.1-1l0,0c-0.1,0-0.1-0.1-0.1-0.1c-0.1-0.1-0.2-0.2-0.3-0.3
			c0-0.1-0.1-0.1-0.1-0.2c-0.1-0.1-0.1-0.1-0.2-0.2c-0.2-0.2-0.3-0.3-0.4-0.5c-0.1-0.1-0.2-0.2-0.3-0.3c0,0-0.1-0.1-0.1-0.1
			c-0.1-0.1-0.2-0.2-0.3-0.4c-0.1-0.1-0.3-0.3-0.4-0.4c0,0-0.1-0.1-0.1-0.1c-0.2-0.2-0.4-0.4-0.6-0.7c-0.1-0.1-0.2-0.3-0.3-0.4
			c0,0,0,0,0,0c0,0,0,0,0,0c-0.1-0.1-0.2-0.2-0.3-0.3c0-0.1-0.1-0.1-0.1-0.2c-0.2-0.2-0.4-0.5-0.6-0.7c-0.1-0.1-0.2-0.2-0.2-0.3
			c0-0.1-0.1-0.1-0.1-0.2c-0.1-0.1-0.1-0.2-0.2-0.2c-0.2-0.3-0.5-0.6-0.7-0.9c0,0,0,0,0,0c-0.1-0.1-0.1-0.2-0.2-0.2
			c-0.1-0.1-0.2-0.2-0.3-0.3c-0.2-0.3-0.4-0.6-0.6-0.9c0-0.1-0.1-0.1-0.1-0.2c0,0-0.1-0.1-0.1-0.2c-0.1-0.1-0.1-0.2-0.2-0.3
			c0,0,0,0,0,0c0,0,0,0,0,0c-0.2-0.3-0.4-0.5-0.6-0.8c0,0,0-0.1-0.1-0.1c-0.1-0.1-0.2-0.2-0.2-0.3c-0.1-0.1-0.2-0.3-0.3-0.4
			c-0.2-0.3-0.3-0.5-0.5-0.8c-0.1-0.1-0.2-0.3-0.3-0.4c0,0,0,0-0.1-0.1c-0.1-0.1-0.2-0.3-0.3-0.4c0,0,0,0,0-0.1
			c-0.1-0.1-0.2-0.3-0.3-0.4c-0.1-0.2-0.3-0.4-0.4-0.6c0,0,0,0,0-0.1c-0.1-0.2-0.2-0.3-0.3-0.5c-0.1-0.1-0.1-0.2-0.2-0.3
			c0,0,0,0,0,0c0,0,0,0-0.1-0.1c-0.2-0.3-0.3-0.6-0.5-0.8c-0.1-0.1-0.1-0.2-0.2-0.4c0,0-0.1-0.1-0.1-0.1c0-0.1-0.1-0.2-0.1-0.2
			c-0.1-0.3-0.3-0.5-0.4-0.8c-0.1-0.1-0.2-0.3-0.2-0.4c0,0,0-0.1-0.1-0.1c0-0.1-0.1-0.2-0.1-0.3c-0.1-0.3-0.3-0.5-0.4-0.8
			c-0.1-0.1-0.1-0.2-0.2-0.4c0-0.1-0.1-0.2-0.1-0.3c-0.1-0.1-0.1-0.2-0.1-0.3c-0.1-0.2-0.2-0.4-0.3-0.7c0-0.1-0.1-0.2-0.1-0.3
			c-0.1-0.1-0.1-0.3-0.2-0.4c-0.1-0.1-0.1-0.2-0.2-0.4c-0.1-0.2-0.2-0.4-0.2-0.5c0-0.1-0.1-0.1-0.1-0.2c-0.1-0.2-0.2-0.4-0.3-0.6
			c-0.1-0.1-0.1-0.3-0.2-0.5c-0.1-0.1-0.1-0.3-0.2-0.4c0,0,0,0,0-0.1c0,0,0,0,0,0c-0.1-0.3-0.2-0.5-0.3-0.8
			c-0.1-0.2-0.1-0.3-0.2-0.5c0,0,0-0.1-0.1-0.1c0-0.1-0.1-0.1-0.1-0.2c-0.1-0.2-0.2-0.5-0.3-0.7c-0.1-0.2-0.2-0.4-0.2-0.6
			c0,0,0-0.1,0-0.1c0,0,0-0.1-0.1-0.2c-0.1-0.2-0.2-0.4-0.2-0.6c0,0,0,0,0,0c-0.1-0.2-0.2-0.5-0.3-0.7c0-0.1,0-0.1-0.1-0.2
			c0,0,0-0.1,0-0.1c-0.1-0.2-0.1-0.4-0.2-0.6c-0.1-0.2-0.1-0.4-0.2-0.6c0-0.1-0.1-0.2-0.1-0.4c0-0.1,0-0.1-0.1-0.2
			c-0.1-0.2-0.1-0.3-0.1-0.5c-0.1-0.2-0.1-0.3-0.2-0.5c-0.1-0.2-0.1-0.4-0.2-0.5c0-0.1-0.1-0.2-0.1-0.3c0-0.1-0.1-0.2-0.1-0.3
			c0-0.1-0.1-0.3-0.1-0.4c-0.1-0.2-0.1-0.5-0.2-0.7c0-0.1-0.1-0.3-0.1-0.4c0-0.1,0-0.1,0-0.2c0-0.1-0.1-0.2-0.1-0.3
			c-0.1-0.3-0.1-0.5-0.2-0.8c0-0.1-0.1-0.3-0.1-0.4c0,0,0-0.1,0-0.1c0,0,0-0.1,0-0.1c0,0,0,0.1,0,0.1c0-0.1,0-0.2-0.1-0.3
			c-0.1-0.3-0.1-0.5-0.2-0.8c-0.1-0.3-0.1-0.5-0.2-0.8c-0.1-0.3-0.1-0.5-0.2-0.8c-0.1-0.3-0.1-0.5-0.2-0.8c0-0.2-0.1-0.5-0.1-0.8
			c-0.1-0.3-0.1-0.5-0.2-0.8c0-0.2-0.1-0.5-0.1-0.7c0-0.3-0.1-0.5-0.1-0.8c0-0.2-0.1-0.5-0.1-0.7c0-0.3-0.1-0.6-0.1-0.8
			c0-0.2-0.1-0.5-0.1-0.7c0-0.3-0.1-0.6-0.1-0.8c0-0.2-0.1-0.5-0.1-0.7c0-0.3-0.1-0.6-0.1-0.9c0-0.2-0.1-0.4-0.1-0.7
			c0-0.3-0.1-0.6-0.1-0.9c0-0.2,0-0.4-0.1-0.6c0-0.3-0.1-0.6-0.1-0.9c0-0.2,0-0.4,0-0.6c0-0.3,0-0.6-0.1-0.9c0-0.2,0-0.4,0-0.6
			c0-0.3,0-0.6-0.1-0.9c0-0.2,0-0.4,0-0.6c0-0.3,0-0.6,0-0.9c0-0.2,0-0.4,0-0.6c0-0.3,0-0.6,0-0.9c0-0.2,0-0.4,0-0.5
			c0-0.3,0-0.6,0-0.9c0-0.2,0-0.3,0-0.5c0-0.3,0-0.6,0-0.9c0-0.2,0-0.3,0-0.5c0-0.3,0-0.6,0-1c0-0.2,0-0.3,0-0.5c0-0.3,0-0.6,0-1
			c0-0.1,0-0.3,0-0.4c0-0.3,0-0.6,0-1c0-0.1,0-0.3,0-0.4c0-0.3,0-0.6,0-1c0-0.1,0-0.3,0-0.4c0-0.3,0-0.7,0-1c0-0.1,0-0.3,0-0.4
			c0-0.3,0-0.7,0.1-1c0-0.1,0-0.3,0-0.4c0-0.3,0-0.6,0.1-1c0-0.1,0-0.2,0-0.3c0-0.3,0.1-0.7,0.1-1c0-0.1,0-0.2,0-0.3
			c0-0.3,0.1-0.7,0.1-1c0-0.1,0-0.2,0-0.3c0-0.3,0.1-0.6,0.1-1c0,0.1,0,0.3,0,0.4c0-0.2,0-0.3,0-0.4c0-0.1,0-0.1,0-0.2
			c0-0.2,0-0.5,0.1-0.7c0,0,0,0,0-0.1l0,0c-0.7,0-1.5-0.1-2.2-0.2c-5.2-0.4-10.9-1.2-17-2.5c-0.3-0.1-0.7-0.1-1-0.2
			c-3,3-6,6.1-8.3,10.2c-15.1,26.3-9.3,51,12.3,73.3c2,0.8,6.1,2.4,11.5,4C476.8,482,478.5,482.5,480.4,482.9z"/>
		<path class="st8" d="M546,417.2c0.4,0.5,0.7,1,1.1,1.5c0.4,0.6,0.9,1.2,1.3,1.8c0.4,0.5,0.8,1,1.1,1.5c0.4,0.6,0.9,1.1,1.3,1.7
			c0.4,0.5,0.8,1,1.1,1.4c0.5,0.6,1,1.2,1.5,1.8c0.5,0.6,1,1.3,1.6,1.9c0.5,0.6,1.1,1.3,1.6,1.9c0.4,0.4,0.8,0.9,1.2,1.3
			c0.4,0.5,0.8,0.9,1.2,1.4c0.4,0.4,0.8,0.9,1.2,1.3c0.4,0.4,0.8,0.8,1.2,1.3c0.4,0.4,0.8,0.9,1.2,1.3c0.4,0.4,0.8,0.8,1.2,1.2
			c0.4,0.4,0.8,0.8,1.2,1.2c0.6,0.6,1.2,1.1,1.8,1.7c0.6,0.5,1.1,1,1.7,1.5c0.4,0.3,0.7,0.7,1.1,1c0.4,0.4,0.9,0.7,1.3,1.1
			c0.4,0.3,0.7,0.6,1.1,0.9c0.4,0.4,0.9,0.7,1.3,1.1c0.3,0.3,0.7,0.5,1,0.8c0.4,0.3,0.9,0.7,1.3,1c0.4,0.3,0.8,0.6,1.3,0.9
			c0.7,0.5,1.3,0.9,1.9,1.4c0.4,0.3,0.8,0.5,1.2,0.8c0.4,0.3,0.8,0.5,1.2,0.8c0.4,0.2,0.7,0.5,1.1,0.7c0.4,0.3,0.8,0.5,1.2,0.8
			c0.4,0.2,0.7,0.4,1.1,0.6c0.4,0.2,0.8,0.5,1.2,0.7c0.4,0.2,0.8,0.4,1.2,0.7c0.7,0.4,1.4,0.7,2,1c0.3,0.2,0.7,0.4,1.1,0.5
			c0.4,0.2,0.8,0.4,1.2,0.6c0.4,0.2,0.7,0.3,1,0.5c0.4,0.2,0.8,0.4,1.2,0.5c0.3,0.1,0.7,0.3,1,0.4c0.4,0.1,0.8,0.3,1.2,0.5
			c0.4,0.2,0.8,0.3,1.2,0.5c0.6,0.2,1.3,0.4,2,0.7c0.3,0.1,0.7,0.2,1,0.3c0.4,0.1,0.8,0.2,1.2,0.4c0.3,0.1,0.7,0.2,1,0.3
			c0.4,0.1,0.8,0.2,1.2,0.3c0.3,0.1,0.7,0.2,1,0.2c0.6,0.1,1.2,0.3,1.8,0.4c0.4,0.1,0.9,0.2,1.3,0.2c0.4,0.1,0.8,0.1,1.2,0.2
			c0.3,0.1,0.6,0.1,1,0.2c0.4,0,0.8,0.1,1.2,0.2c0.3,0,0.6,0.1,1,0.1c0.4,0,0.8,0.1,1.2,0.1c0.3,0,0.6,0,1,0.1
			c0.7,0,1.3,0.1,1.9,0.1c0.4,0,0.7,0,1.1,0c0.4,0,0.8,0,1.1,0c0.3,0,0.6,0,0.9,0c0.4,0,0.8,0,1.1,0c0.3,0,0.6,0,0.9,0
			c0.4,0,0.7,0,1.1-0.1c0.3,0,0.6-0.1,1-0.1c0.6,0,1.2-0.1,1.8-0.2c0.3,0,0.7-0.1,1-0.1c0.3,0,0.7-0.1,1.1-0.2
			c0.3,0,0.6-0.1,0.9-0.1c0.4-0.1,0.7-0.1,1.1-0.2c0.3-0.1,0.6-0.1,0.9-0.2c0.3-0.1,0.7-0.1,1-0.2c0.3-0.1,0.7-0.1,1-0.2
			c0.5-0.1,1.1-0.2,1.6-0.4c0.3-0.1,0.7-0.2,1-0.3c0.3-0.1,0.6-0.2,1-0.3c0.3-0.1,0.6-0.2,0.9-0.3c0.3-0.1,0.6-0.2,1-0.3
			c0.3-0.1,0.6-0.2,1-0.3c0.3-0.1,0.6-0.2,0.9-0.3c0.4-0.1,0.8-0.3,1.2-0.4c0.4-0.2,0.9-0.3,1.3-0.5c0.3-0.1,0.7-0.3,1-0.4
			c0.3-0.1,0.6-0.2,0.9-0.4c0.3-0.1,0.6-0.3,0.9-0.4c0.3-0.1,0.6-0.2,0.9-0.4c0.3-0.1,0.7-0.3,1-0.4c0.3-0.1,0.5-0.2,0.8-0.4
			c0.5-0.3,1.1-0.5,1.6-0.8c0.3-0.1,0.5-0.2,0.7-0.4c0.4-0.2,0.7-0.3,1-0.5c0.3-0.1,0.5-0.3,0.8-0.4c0.3-0.2,0.6-0.3,0.9-0.5
			c0.3-0.1,0.5-0.3,0.8-0.4c0.3-0.2,0.7-0.4,1-0.6c0.2-0.1,0.5-0.3,0.7-0.4c0.5-0.3,1-0.6,1.6-0.9c0.2-0.1,0.4-0.3,0.6-0.4
			c0.3-0.2,0.7-0.4,1-0.6c0.2-0.1,0.5-0.3,0.7-0.4c0.3-0.2,0.6-0.4,0.9-0.6c0.2-0.2,0.4-0.3,0.7-0.4c0.3-0.2,0.7-0.5,1-0.7
			c0.2-0.1,0.3-0.2,0.5-0.4c0.5-0.3,1-0.7,1.5-1c0.2-0.1,0.3-0.3,0.5-0.4c0.3-0.2,0.7-0.5,1-0.7c0.2-0.1,0.4-0.3,0.6-0.4
			c0.3-0.2,0.6-0.5,0.9-0.7c0.2-0.1,0.4-0.3,0.6-0.4c0.4-0.3,0.7-0.6,1.1-0.8c0.1-0.1,0.2-0.2,0.3-0.3c0.5-0.4,0.9-0.7,1.4-1.1
			c0.2-0.1,0.3-0.2,0.4-0.4c0.3-0.3,0.6-0.5,0.9-0.8c0.2-0.1,0.3-0.3,0.5-0.4c0.3-0.3,0.6-0.5,0.9-0.8c0.1-0.1,0.3-0.3,0.4-0.4
			c0.4-0.3,0.7-0.6,1.1-1c0.1,0,0.1-0.1,0.2-0.2c0.4-0.4,0.8-0.8,1.2-1.1c0.1-0.1,0.2-0.2,0.4-0.4c0.3-0.3,0.6-0.5,0.9-0.8
			c0.1-0.1,0.3-0.3,0.4-0.4c0.3-0.3,0.5-0.5,0.8-0.8c0.1-0.1,0.2-0.2,0.4-0.3c0.4-0.4,0.8-0.8,1.1-1.1l0,0
			c82.1-84.6,41-214.1,41-214.1c10.3,109.3-41,138.5-41,138.5s0.1-0.1,0.2-0.3c-9.9,7.8-22.8,14.8-39.4,18.6c-2.4,0.5-4.8,1-7.3,1.4
			c0.1-0.1,0.2-0.3,0.3-0.4c-20,24.8-45.9,35.4-61.5,40.4c-13.5,4.3-24.7,0.5-30.9-8.2c0.8,1.3,1.7,2.5,2.5,3.8
			c0.3,0.4,0.6,0.9,0.9,1.3C544.9,415.7,545.4,416.4,546,417.2z"/>
		<path class="st2" d="M543.1,418.2c0,0.1,0.1,0.2,0.1,0.3c0.3,1.3,0.7,2.8,1.2,4.3c0,0.1,0,0.1,0.1,0.2c0.1,0.3,0.2,0.7,0.3,1
			c0.1,0.2,0.1,0.4,0.2,0.6c0.1,0.4,0.3,0.8,0.4,1.2c0.1,0.1,0.1,0.3,0.1,0.4c0.1,0.4,0.3,0.9,0.4,1.4c0,0.1,0.1,0.2,0.1,0.3
			c0.2,0.5,0.4,1,0.5,1.6c0,0.1,0,0.1,0.1,0.2c0.2,0.5,0.4,1,0.6,1.6c0,0.1,0.1,0.1,0.1,0.2c0.2,0.5,0.4,1.1,0.6,1.6
			c0,0.1,0,0.1,0.1,0.2c0.2,0.5,0.4,1,0.6,1.5c0,0.1,0.1,0.2,0.1,0.3c0.5,1.2,1,2.4,1.5,3.7c0,0,0,0.1,0,0.1
			c0.3,0.6,0.6,1.3,0.8,1.9l0,0c0.8,1.9,1.7,3.7,2.7,5.6c0,0.1,0.1,0.1,0.1,0.2c0.1,0.2,0.2,0.4,0.3,0.5c2.9,5.7,6.5,11.5,10.7,16.9
			l0,0l0,0l0,0c0,0,0,0,0,0c4-4.3,7.7-9.3,11-15.2c0,0,0,0,0,0s0,0,0,0c0,0-0.1,0-0.1-0.1c-0.4-0.3-0.9-0.7-1.3-1
			c-0.3-0.3-0.7-0.5-1-0.8c-0.4-0.4-0.9-0.7-1.3-1.1c-0.4-0.3-0.7-0.6-1.1-0.9c-0.4-0.4-0.9-0.7-1.3-1.1c-0.4-0.3-0.7-0.7-1.1-1
			c-0.5-0.5-1.1-1-1.7-1.5c-0.6-0.6-1.2-1.1-1.8-1.7c-0.4-0.4-0.8-0.8-1.2-1.2c-0.4-0.4-0.8-0.8-1.2-1.2c-0.4-0.4-0.8-0.9-1.2-1.3
			c-0.4-0.4-0.8-0.8-1.2-1.3c-0.4-0.4-0.8-0.9-1.2-1.3c-0.4-0.5-0.8-0.9-1.2-1.4c-0.4-0.5-0.8-0.9-1.2-1.3c-0.5-0.6-1.1-1.3-1.6-1.9
			c-0.5-0.6-1.1-1.3-1.6-1.9c-0.5-0.6-1-1.2-1.5-1.8c-0.4-0.5-0.8-1-1.1-1.4c-0.4-0.6-0.9-1.1-1.3-1.7c-0.4-0.5-0.8-1-1.1-1.5
			c-0.4-0.6-0.9-1.2-1.3-1.8c-0.4-0.5-0.7-1-1.1-1.5c-0.5-0.7-1-1.5-1.5-2.2c-0.3-0.4-0.6-0.8-0.9-1.3c-0.7-1.1-1.5-2.2-2.2-3.3
			c0.3,1.7,0.8,4,1.5,6.6C542.9,417.4,543,417.8,543.1,418.2z"/>
		<path class="st9" d="M679.6,434.1L679.6,434.1c-0.4,0.4-0.7,0.8-1.1,1.1c-0.1,0.1-0.2,0.2-0.4,0.3c-0.3,0.3-0.5,0.5-0.8,0.8
			c-0.1,0.1-0.3,0.3-0.4,0.4c-0.3,0.3-0.6,0.5-0.9,0.8c-0.1,0.1-0.2,0.2-0.4,0.4c-0.4,0.4-0.8,0.8-1.2,1.1c-0.1,0.1-0.1,0.1-0.2,0.2
			c-0.4,0.3-0.7,0.7-1.1,1c-0.1,0.1-0.3,0.3-0.4,0.4c-0.3,0.3-0.6,0.5-0.9,0.8c-0.2,0.1-0.3,0.3-0.5,0.4c-0.3,0.3-0.6,0.5-0.9,0.8
			c-0.2,0.1-0.3,0.2-0.4,0.4c-0.5,0.4-0.9,0.7-1.4,1.1c-0.1,0.1-0.2,0.2-0.3,0.3c-0.4,0.3-0.7,0.6-1.1,0.8c-0.2,0.1-0.4,0.3-0.6,0.4
			c-0.3,0.2-0.6,0.5-0.9,0.7c-0.2,0.1-0.4,0.3-0.6,0.4c-0.3,0.3-0.6,0.5-1,0.7c-0.2,0.1-0.3,0.3-0.5,0.4c-0.5,0.3-1,0.7-1.5,1
			c-0.2,0.1-0.3,0.2-0.5,0.4c-0.3,0.2-0.7,0.5-1,0.7c-0.2,0.2-0.4,0.3-0.7,0.4c-0.3,0.2-0.6,0.4-0.9,0.6c-0.2,0.1-0.5,0.3-0.7,0.4
			c-0.3,0.2-0.7,0.4-1,0.6c-0.2,0.1-0.4,0.3-0.6,0.4c-0.5,0.3-1,0.6-1.6,0.9c-0.2,0.1-0.5,0.3-0.7,0.4c-0.3,0.2-0.6,0.4-1,0.6
			c-0.3,0.1-0.5,0.3-0.8,0.4c-0.3,0.2-0.6,0.3-0.9,0.5c-0.3,0.1-0.5,0.3-0.8,0.4c-0.3,0.2-0.7,0.4-1,0.5c-0.2,0.1-0.5,0.2-0.7,0.4
			c-0.5,0.3-1.1,0.5-1.6,0.8c-0.3,0.1-0.5,0.2-0.8,0.4c-0.3,0.2-0.6,0.3-1,0.4c-0.3,0.1-0.6,0.3-0.9,0.4c-0.3,0.1-0.6,0.3-0.9,0.4
			c-0.3,0.1-0.6,0.2-0.9,0.4c-0.3,0.1-0.7,0.3-1,0.4c-0.4,0.2-0.9,0.3-1.3,0.5c-0.4,0.2-0.8,0.3-1.2,0.4c-0.3,0.1-0.6,0.2-0.9,0.3
			c-0.3,0.1-0.6,0.2-1,0.3c-0.3,0.1-0.6,0.2-1,0.3c-0.3,0.1-0.6,0.2-0.9,0.3c-0.3,0.1-0.6,0.2-1,0.3c-0.4,0.1-0.7,0.2-1,0.3
			c-0.5,0.1-1.1,0.3-1.6,0.4c-0.3,0.1-0.7,0.2-1,0.2c-0.3,0.1-0.7,0.1-1,0.2c-0.3,0.1-0.6,0.1-0.9,0.2c-0.4,0.1-0.7,0.1-1.1,0.2
			c-0.3,0-0.6,0.1-0.9,0.1c-0.3,0.1-0.7,0.1-1.1,0.2c-0.3,0.1-0.7,0.1-1,0.1c-0.6,0.1-1.2,0.1-1.8,0.2c-0.3,0-0.7,0.1-1,0.1
			c-0.4,0-0.7,0-1.1,0.1c-0.3,0-0.6,0-0.9,0c-0.4,0-0.7,0-1.1,0c-0.3,0-0.6,0-0.9,0c-0.4,0-0.7,0-1.1,0c-0.4,0-0.7,0-1.1,0
			c-0.6,0-1.3-0.1-1.9-0.1c-0.3,0-0.6,0-1-0.1c-0.4,0-0.8-0.1-1.2-0.1c-0.3,0-0.6-0.1-1-0.1c-0.4-0.1-0.8-0.1-1.2-0.2
			c-0.3,0-0.7-0.1-1-0.2c-0.4-0.1-0.8-0.1-1.2-0.2c-0.4-0.1-0.9-0.2-1.3-0.2c-0.6-0.1-1.2-0.2-1.8-0.4c-0.3-0.1-0.7-0.2-1-0.2
			c-0.4-0.1-0.8-0.2-1.2-0.3c-0.3-0.1-0.7-0.2-1-0.3c-0.4-0.1-0.8-0.2-1.2-0.4c-0.3-0.1-0.7-0.2-1-0.3c-0.6-0.2-1.3-0.4-2-0.7
			c-0.4-0.2-0.8-0.3-1.2-0.5c-0.4-0.2-0.8-0.3-1.2-0.5c-0.3-0.1-0.7-0.3-1-0.4c-0.4-0.2-0.8-0.3-1.2-0.5c-0.3-0.1-0.7-0.3-1-0.5
			c-0.4-0.2-0.8-0.4-1.2-0.6c-0.4-0.2-0.7-0.3-1.1-0.5c-0.7-0.3-1.3-0.7-2-1c-0.4-0.2-0.8-0.4-1.2-0.7c-0.4-0.2-0.8-0.5-1.2-0.7
			c-0.4-0.2-0.7-0.4-1.1-0.6c-0.4-0.2-0.8-0.5-1.2-0.8c-0.4-0.2-0.7-0.5-1.1-0.7c-0.4-0.3-0.8-0.5-1.2-0.8c-0.4-0.3-0.8-0.5-1.2-0.8
			c-0.6-0.5-1.3-0.9-1.9-1.4c-0.4-0.3-0.8-0.6-1.2-0.8c-3.3,5.9-7,10.9-11,15.2c0.3,0.3,0.5,0.7,0.8,1c0.2,0.3,0.4,0.5,0.7,0.8
			c0.3,0.3,0.6,0.6,0.8,1c0.2,0.3,0.5,0.6,0.7,0.8c0.3,0.3,0.6,0.6,0.8,1c0.3,0.3,0.5,0.6,0.7,0.8c0.3,0.3,0.6,0.6,0.9,0.9
			c0.3,0.3,0.5,0.5,0.8,0.8c0.3,0.3,0.6,0.6,0.9,0.9c0.3,0.3,0.5,0.5,0.8,0.8c0.3,0.3,0.6,0.6,1,0.9c0.3,0.3,0.5,0.5,0.8,0.8
			c0.3,0.3,0.7,0.6,1,0.9c0.3,0.2,0.6,0.5,0.8,0.7c0.3,0.3,0.7,0.6,1,0.9c0.3,0.2,0.6,0.5,0.9,0.7c0.4,0.3,0.7,0.6,1.1,0.8
			c0.3,0.2,0.6,0.5,0.9,0.7c0.4,0.3,0.7,0.5,1.1,0.8c0.3,0.2,0.6,0.4,0.9,0.7c0.4,0.3,0.7,0.5,1.1,0.8c0.3,0.2,0.6,0.4,1,0.6
			c0.4,0.2,0.8,0.5,1.2,0.7c0.3,0.2,0.7,0.4,1,0.6c0.4,0.2,0.8,0.5,1.2,0.7c0.3,0.2,0.7,0.4,1,0.6c0.4,0.2,0.8,0.4,1.2,0.7
			c0.3,0.2,0.7,0.3,1,0.5c0.4,0.2,0.9,0.4,1.3,0.6c0.4,0.2,0.7,0.3,1.1,0.5c0.4,0.2,0.9,0.4,1.3,0.6c0.4,0.2,0.7,0.3,1.1,0.5
			c0.5,0.2,0.9,0.4,1.4,0.5c0.4,0.1,0.7,0.3,1.1,0.4c0.5,0.2,0.9,0.4,1.4,0.5c0.4,0.1,0.8,0.3,1.1,0.4c0.5,0.2,1,0.3,1.5,0.4
			c0.4,0.1,0.8,0.2,1.2,0.3c0.5,0.1,1,0.3,1.5,0.4c0.4,0.1,0.8,0.2,1.2,0.3c0.5,0.1,1,0.2,1.6,0.4c0.4,0.1,0.8,0.2,1.2,0.2
			c0.5,0.1,1.1,0.2,1.6,0.3c0.4,0.1,0.8,0.1,1.2,0.2c0.6,0.1,1.1,0.2,1.7,0.3c0.4,0,0.8,0.1,1.3,0.1c0.6,0.1,1.1,0.1,1.7,0.2
			c0.4,0,0.9,0.1,1.3,0.1c0.6,0,1.2,0.1,1.8,0.1c0.4,0,0.9,0,1.3,0.1c0.6,0,1.2,0.1,1.9,0.1c0.4,0,0.8,0,1.3,0c0.6,0,1.3,0,2,0
			c0.4,0,0.8,0,1.2,0c0.7,0,1.4,0,2.1-0.1c0.4,0,0.7,0,1.1-0.1c0.8,0,1.5-0.1,2.3-0.2c0.2,0,0.4,0,0.5,0c2.9-0.3,5.8-0.6,8.8-1.2
			c1.7-0.3,3.4-0.6,5.1-1C716,475,747.5,380.2,747.5,380.2C715,431,679.6,434.1,679.6,434.1z"/>
		<path class="st8" d="M564.8,464l-84.6-67l0,0l-0.3-0.1c0,0,0,0,0,0.1l44.8,88.3c0,0,0,0,0.1,0C538.7,483.1,552.9,476.9,564.8,464
			L564.8,464C564.8,464.1,564.8,464,564.8,464z"/>
		<path class="st10" d="M482,436c0,0.2,0.1,0.4,0.2,0.6c0,0,0,0.1,0,0.1v0c0,0,0,0,0,0c0.1,0.3,0.2,0.7,0.3,1c0,0.1,0.1,0.2,0.1,0.4
			c0,0.1,0.1,0.2,0.1,0.4c0,0,0,0.1,0,0.1c0.1,0.3,0.2,0.6,0.3,1c0,0,0,0.1,0,0.1c0.1,0.2,0.1,0.3,0.2,0.5c0,0.1,0.1,0.2,0.1,0.3
			c0.1,0.3,0.2,0.6,0.3,0.9c0.1,0.2,0.1,0.3,0.2,0.5c0.1,0.1,0.1,0.3,0.2,0.4c0.1,0.4,0.2,0.7,0.4,1.1c0,0.1,0,0.1,0.1,0.2
			c0.1,0.2,0.1,0.4,0.2,0.5c0.1,0.4,0.3,0.8,0.4,1.1c0.1,0.2,0.1,0.3,0.2,0.5c0,0.1,0,0.1,0.1,0.2c0.1,0.3,0.3,0.7,0.4,1
			c0.1,0.1,0.1,0.3,0.2,0.4c0,0.1,0.1,0.2,0.1,0.3c0,0,0,0,0,0c0,0,0,0,0,0c0.1,0.3,0.3,0.6,0.4,1c0,0.1,0.1,0.1,0.1,0.2
			c0.1,0.1,0.1,0.3,0.2,0.4c0,0.1,0.1,0.1,0.1,0.2c0.2,0.3,0.3,0.6,0.5,1c0.1,0.2,0.1,0.3,0.2,0.5c0.1,0.1,0.1,0.2,0.2,0.3
			c0.2,0.3,0.3,0.7,0.5,1c0.1,0.1,0.1,0.2,0.1,0.3c0.1,0.2,0.2,0.3,0.3,0.5c0.2,0.4,0.4,0.8,0.6,1.2c0.1,0.2,0.2,0.3,0.3,0.5
			c0,0,0.1,0.1,0.1,0.1c0.2,0.4,0.4,0.7,0.7,1.1c0,0,0,0,0,0c0,0,0,0,0,0c0.1,0.1,0.1,0.2,0.2,0.3c0.1,0.1,0.1,0.2,0.2,0.3
			c0.2,0.3,0.4,0.6,0.6,1c0,0.1,0.1,0.1,0.1,0.2c0.1,0.2,0.2,0.3,0.3,0.5c0.2,0.3,0.4,0.7,0.6,1c0.1,0.2,0.3,0.4,0.4,0.6
			c0,0,0,0,0,0h0c0.2,0.3,0.5,0.7,0.7,1c0.1,0.1,0.1,0.2,0.2,0.3c0.1,0.1,0.2,0.2,0.2,0.3c0.3,0.4,0.6,0.8,0.9,1.2
			c0.1,0.1,0.2,0.3,0.3,0.4c0,0.1,0.1,0.1,0.1,0.2c0.3,0.3,0.6,0.7,0.9,1.1c0.1,0.1,0.1,0.1,0.2,0.2c0.1,0.1,0.1,0.2,0.2,0.3
			c0.1,0.1,0.1,0.1,0.2,0.2c0.3,0.3,0.5,0.6,0.8,0.9c0.1,0.1,0.1,0.1,0.2,0.2c0.1,0.1,0.3,0.3,0.4,0.4c0.3,0.3,0.5,0.6,0.8,0.9
			c0,0,0,0,0,0c0,0,0,0,0,0c0.2,0.2,0.4,0.4,0.5,0.6c0,0,0.1,0.1,0.1,0.1c0.3,0.3,0.5,0.6,0.8,0.8c0.2,0.2,0.3,0.4,0.5,0.5
			c0.4,0.4,0.7,0.7,1.1,1.1c0.1,0.1,0.2,0.1,0.2,0.2c0.1,0.1,0.1,0.1,0.2,0.2c0,0,0,0,0,0c0,0,0,0,0,0c0.5,0.4,0.9,0.8,1.4,1.3
			c0,0,0.1,0,0.1,0.1c0.1,0.1,0.3,0.2,0.4,0.3c0,0,0.1,0.1,0.1,0.1c0.4,0.3,0.7,0.6,1.1,0.9c0,0,0,0,0,0c0.1,0.1,0.1,0.1,0.2,0.2
			c0.1,0.1,0.3,0.2,0.4,0.4c0.3,0.3,0.7,0.6,1,0.8c0,0,0,0,0,0c0.2,0.2,0.4,0.3,0.7,0.5c0.3,0.2,0.6,0.4,0.9,0.6
			c0.9,0.7,1.9,1.4,2.8,2c0,0,0,0,0,0c1,0.6,1.9,1.3,2.9,1.9c0.2,0.2,0.5,0.3,0.7,0.4c0.2,0.1,0.4,0.3,0.7,0.4c0,0,0,0,0.1,0
			c0.4,0.2,0.9,0.5,1.3,0.8c0.2,0.1,0.4,0.2,0.6,0.3c0.1,0,0.1,0.1,0.2,0.1c0.4,0.2,0.9,0.5,1.3,0.7c0,0,0,0,0,0
			c0.1,0.1,0.2,0.1,0.3,0.2c0.2,0.1,0.3,0.2,0.5,0.3c0.5,0.3,1,0.5,1.5,0.7c0.3,0.1,0.5,0.2,0.8,0.4c0.6,0.3,1.3,0.6,2,0.9
			c0.1,0,0.2,0.1,0.3,0.1L479.9,397c0,0.2,0,0.4-0.1,0.6c0,0,0,0,0,0c0,0.1,0,0.2,0,0.3c0,0,0,0,0,0c0,0.3-0.1,0.6-0.1,1
			c0,0.1,0,0.2,0,0.3c0,0.3-0.1,0.7-0.1,1c0,0.1,0,0.2,0,0.3c0,0.3-0.1,0.7-0.1,1c0,0.1,0,0.2,0,0.3c0,0.3,0,0.7-0.1,1
			c0,0.1,0,0.2,0,0.4c0,0.3,0,0.6-0.1,1c0,0.1,0,0.3,0,0.4c0,0.3,0,0.6,0,1c0,0.1,0,0.3,0,0.4c0,0.3,0,0.6,0,1c0,0.1,0,0.3,0,0.4
			c0,0.3,0,0.6,0,1c0,0.2,0,0.3,0,0.4c0,0.3,0,0.6,0,1c0,0.2,0,0.3,0,0.5c0,0.3,0,0.6,0,1c0,0.2,0,0.3,0,0.5c0,0.3,0,0.6,0,0.9
			c0,0.2,0,0.3,0,0.5c0,0.3,0,0.6,0,0.9c0,0.2,0,0.3,0,0.5c0,0.3,0,0.6,0,0.9c0,0.2,0,0.4,0,0.6c0,0.3,0,0.6,0,0.9
			c0,0.2,0,0.4,0,0.6c0,0.3,0,0.6,0.1,0.9c0,0.2,0,0.4,0,0.6c0,0.3,0,0.6,0.1,0.9c0,0.2,0,0.4,0,0.6c0,0.3,0.1,0.6,0.1,0.9
			c0,0.2,0,0.4,0.1,0.6c0,0.3,0.1,0.6,0.1,0.9c0,0.2,0,0.4,0.1,0.7c0,0.3,0.1,0.6,0.1,0.9c0,0.2,0.1,0.4,0.1,0.7
			c0,0.3,0.1,0.6,0.1,0.8c0,0.2,0.1,0.5,0.1,0.7c0,0.3,0.1,0.6,0.1,0.8c0,0.2,0.1,0.5,0.1,0.7c0,0.3,0.1,0.5,0.1,0.8
			c0,0.2,0.1,0.5,0.1,0.7c0,0.3,0.1,0.5,0.2,0.8c0.1,0.3,0.1,0.5,0.1,0.8c0.1,0.3,0.1,0.5,0.2,0.8c0.1,0.2,0.1,0.5,0.2,0.8
			c0.1,0.3,0.1,0.5,0.2,0.8c0.1,0.3,0.1,0.5,0.2,0.8c0.1,0.2,0.1,0.4,0.2,0.6C481.9,435.2,482,435.6,482,436z"/>
		<path class="st11" d="M632.5,493.1c-0.8,0.1-1.5,0.1-2.3,0.2c-0.4,0-0.7,0.1-1.1,0.1c-0.7,0-1.4,0-2.1,0.1c-0.4,0-0.8,0-1.2,0
			c-0.7,0-1.3,0-2,0c-0.4,0-0.9,0-1.3,0c-0.6,0-1.2-0.1-1.9-0.1c-0.4,0-0.9,0-1.3-0.1c-0.6,0-1.2-0.1-1.8-0.1
			c-0.4,0-0.8-0.1-1.3-0.1c-0.6-0.1-1.1-0.1-1.7-0.2c-0.4,0-0.8-0.1-1.3-0.1c-0.6-0.1-1.1-0.2-1.7-0.3c-0.4-0.1-0.8-0.1-1.2-0.2
			c-0.5-0.1-1.1-0.2-1.6-0.3c-0.4-0.1-0.8-0.2-1.2-0.2c-0.5-0.1-1-0.2-1.6-0.4c-0.4-0.1-0.8-0.2-1.2-0.3c-0.5-0.1-1-0.3-1.5-0.4
			c-0.4-0.1-0.8-0.2-1.2-0.3c-0.5-0.2-1-0.3-1.5-0.4c-0.4-0.1-0.8-0.2-1.1-0.4c-0.5-0.2-0.9-0.3-1.4-0.5c-0.4-0.1-0.7-0.3-1.1-0.4
			c-0.5-0.2-0.9-0.4-1.4-0.5c-0.4-0.1-0.7-0.3-1.1-0.5c-0.4-0.2-0.9-0.4-1.3-0.6c-0.4-0.2-0.7-0.3-1.1-0.5c-0.4-0.2-0.9-0.4-1.3-0.6
			c-0.3-0.2-0.7-0.4-1-0.5c-0.4-0.2-0.8-0.4-1.2-0.7c-0.3-0.2-0.7-0.4-1-0.6c-0.4-0.2-0.8-0.5-1.2-0.7c-0.3-0.2-0.7-0.4-1-0.6
			c-0.4-0.2-0.8-0.5-1.2-0.7c-0.3-0.2-0.6-0.4-1-0.6c-0.4-0.3-0.8-0.5-1.1-0.8c-0.3-0.2-0.6-0.4-0.9-0.7c-0.4-0.3-0.7-0.5-1.1-0.8
			c-0.3-0.2-0.6-0.5-0.9-0.7c-0.4-0.3-0.7-0.6-1.1-0.8c-0.3-0.2-0.6-0.5-0.9-0.7c-0.4-0.3-0.7-0.6-1-0.9c-0.3-0.2-0.6-0.5-0.8-0.7
			c-0.3-0.3-0.7-0.6-1-0.9c-0.3-0.2-0.5-0.5-0.8-0.8c-0.3-0.3-0.6-0.6-1-0.9c-0.3-0.3-0.5-0.5-0.8-0.8c-0.3-0.3-0.6-0.6-0.9-0.9
			c-0.3-0.3-0.5-0.5-0.8-0.8c-0.3-0.3-0.6-0.6-0.9-0.9c-0.2-0.3-0.5-0.6-0.7-0.8c-0.3-0.3-0.6-0.6-0.8-1c-0.2-0.3-0.5-0.6-0.7-0.8
			c-0.3-0.3-0.6-0.6-0.8-1c-0.2-0.3-0.4-0.5-0.7-0.8c-0.3-0.3-0.5-0.7-0.8-1c-11.9,12.8-26.1,19-40.1,21.3c0,0,0,0,0,0l0,0
			c6.1,2.7,13,5.1,20.8,6.9c0.1,0,0.1,0,0.2,0c0.8,0.2,1.7,0.4,2.5,0.6c0.2,0,0.3,0.1,0.5,0.1c0.8,0.2,1.6,0.3,2.4,0.5
			c0.3,0,0.5,0.1,0.7,0.1c0.8,0.1,1.5,0.3,2.3,0.4c0.3,0.1,0.6,0.1,0.9,0.2c0.7,0.1,1.5,0.2,2.3,0.3c0.4,0.1,0.7,0.1,1.1,0.2
			c0.7,0.1,1.5,0.2,2.2,0.3c0.4,0.1,0.8,0.1,1.2,0.1c0.7,0.1,1.5,0.2,2.2,0.3c0.4,0,0.8,0.1,1.3,0.1c0.7,0.1,1.5,0.1,2.2,0.2
			c0.5,0,0.9,0.1,1.4,0.1c0.7,0.1,1.5,0.1,2.2,0.2c0.5,0,1,0.1,1.5,0.1c0.7,0,1.5,0.1,2.2,0.1c0.5,0,1,0.1,1.6,0.1
			c0.7,0,1.5,0.1,2.2,0.1c0.5,0,1.1,0,1.6,0.1c0.7,0,1.5,0,2.2,0.1c0.6,0,1.2,0,1.7,0c0.8,0,1.5,0,2.3,0c0.6,0,1.2,0,1.8,0
			c0.8,0,1.5,0,2.3,0c0.6,0,1.3,0,1.9,0c0.8,0,1.5,0,2.3,0c0.7,0,1.3,0,2-0.1c0.8,0,1.5-0.1,2.3-0.1c0.7,0,1.4-0.1,2.1-0.1
			c0.8,0,1.5-0.1,2.3-0.1c0.7,0,1.5-0.1,2.2-0.1c0.8-0.1,1.5-0.1,2.3-0.1c0.8-0.1,1.5-0.1,2.3-0.2c0.8-0.1,1.5-0.1,2.3-0.2
			c0.8-0.1,1.6-0.1,2.4-0.2c0.8-0.1,1.5-0.1,2.3-0.2c0.8-0.1,1.7-0.2,2.5-0.3c0.8-0.1,1.5-0.2,2.3-0.2c0.9-0.1,1.8-0.2,2.7-0.3
			c0.8-0.1,1.5-0.2,2.3-0.3c1-0.1,1.9-0.2,2.9-0.4c0.7-0.1,1.4-0.2,2.2-0.3c1.1-0.2,2.2-0.3,3.3-0.5c0.6-0.1,1.2-0.2,1.8-0.3
			c1.7-0.3,3.5-0.5,5.3-0.8c0.2,0,0.4-0.1,0.6-0.1l-0.1,0c-0.4,0.1-0.7,0.1-1.1,0.2c-3,0.5-6,0.9-8.8,1.2
			C632.8,493,632.6,493,632.5,493.1z"/>
		<path class="st1" d="M387.9,334.3c-1.3-31.3,11.8-62.1-8.7-102.6c0,0,8.6,36.6-6.7,85.1c-12.5,39.6,1.2,60.7,2.8,62.8
			c8,6.3,18.8,11.8,32.9,14.1C397.4,380.4,389,361.5,387.9,334.3z"/>
		<path class="st12" d="M490.9,277.2L490.9,277.2c0.1,0.1,0.1,0.1,0.2,0.2c0,0,0.1,0.1,0.1,0.1c0.1,0,0.1,0.1,0.2,0.1
			c0.1,0,0.1,0.1,0.2,0.2c0.1,0,0.1,0.1,0.2,0.1c0.1,0.1,0.2,0.2,0.3,0.3c0,0,0.1,0.1,0.1,0.1c0.2,0.1,0.3,0.3,0.5,0.4
			c0.1,0,0.2,0.1,0.2,0.2c0.1,0.1,0.3,0.2,0.4,0.3c0.1,0.1,0.2,0.2,0.3,0.3c0.1,0.1,0.2,0.2,0.4,0.3c0.1,0.1,0.3,0.2,0.4,0.3
			c0.1,0.1,0.2,0.2,0.4,0.3c0.2,0.1,0.3,0.2,0.5,0.4c0.1,0.1,0.2,0.2,0.4,0.3c0.2,0.1,0.4,0.3,0.6,0.4c0.1,0.1,0.2,0.2,0.3,0.2
			c0.2,0.1,0.4,0.3,0.7,0.4c0.1,0.1,0.2,0.1,0.3,0.2c0.3,0.2,0.5,0.3,0.8,0.5c0.1,0,0.1,0.1,0.2,0.1c0.8,0.5,1.7,1.1,2.7,1.6
			c1.4,0.9,3,1.8,4.7,2.7c0,0,0,0,0,0c0.5,0.3,1,0.5,1.4,0.7c0,0,0,0,0.1,0c0.5,0.2,1,0.5,1.5,0.7c0,0,0,0,0.1,0
			c3.5,1.7,7.5,3.3,11.8,4.7c1.4,0.4,2.7,0.8,4.2,1.2h0c0.7,0.2,1.3,0.3,2,0.5c0,0,0.1,0,0.1,0c0.6,0.1,1.3,0.3,2,0.4
			c0,0,0.1,0,0.1,0c0.7,0.1,1.3,0.3,2,0.4h0l0,0c1.3,0.2,2.7,0.4,4.1,0.6c0,0,0,0,0.1,0c17,2.4,41.9-3.4,41.9-3.4
			c-21.6,0.5-34.1-4.9-55.1-19.2c-18.7-12.7-28.7,0-30.7,2.9C491.1,276.7,491,276.9,490.9,277.2L490.9,277.2z"/>
		<path class="st13" d="M528.9,295.3C528.9,295.3,528.9,295.2,528.9,295.3c-0.8-0.1-1.4-0.3-2.1-0.4c0,0-0.1,0-0.1,0
			c-0.7-0.1-1.3-0.3-2-0.5h0c-1.4-0.4-2.8-0.7-4.2-1.2c-4.3-1.3-8.3-3-11.8-4.7c0,0,0,0-0.1,0c-0.5-0.2-1-0.5-1.5-0.7c0,0,0,0-0.1,0
			c-0.5-0.2-1-0.5-1.4-0.7c0,0,0,0,0,0c-1.7-0.9-3.3-1.8-4.7-2.7c-0.9-0.6-1.8-1.1-2.7-1.6c-0.1,0-0.1-0.1-0.2-0.1
			c-0.3-0.2-0.5-0.4-0.8-0.5c-0.1-0.1-0.2-0.1-0.3-0.2c-0.2-0.2-0.4-0.3-0.7-0.4c-0.1-0.1-0.2-0.2-0.3-0.2c-0.2-0.1-0.4-0.3-0.6-0.4
			c-0.1-0.1-0.2-0.2-0.4-0.3c-0.2-0.1-0.3-0.2-0.5-0.4c-0.1-0.1-0.2-0.2-0.4-0.3c-0.1-0.1-0.3-0.2-0.4-0.3c-0.1-0.1-0.2-0.2-0.4-0.3
			c-0.1-0.1-0.2-0.2-0.3-0.3c-0.1-0.1-0.3-0.2-0.4-0.3c-0.1-0.1-0.2-0.1-0.2-0.2c-0.2-0.2-0.4-0.3-0.5-0.4c-0.1,0-0.1-0.1-0.1-0.1
			c-0.1-0.1-0.2-0.2-0.3-0.3c-0.1,0-0.1-0.1-0.2-0.1c-0.1-0.1-0.1-0.1-0.2-0.2c-0.1,0-0.1-0.1-0.2-0.1c0,0-0.1-0.1-0.1-0.1
			c-0.1-0.1-0.1-0.1-0.1-0.1l51.6,87l0,0c8.4-40.9-9.3-65.7-11.6-68.6h0C530.3,295.5,529.6,295.4,528.9,295.3z"/>
		<path class="st14" d="M635.3,492.9c-1.1,0.2-2.2,0.3-3.3,0.5c-0.7,0.1-1.4,0.2-2.2,0.3c-1,0.1-1.9,0.3-2.9,0.4
			c-0.8,0.1-1.5,0.2-2.3,0.3c-0.9,0.1-1.8,0.2-2.7,0.3c-0.8,0.1-1.5,0.2-2.3,0.2c-0.8,0.1-1.7,0.2-2.5,0.3c-0.8,0.1-1.6,0.2-2.3,0.2
			c-0.8,0.1-1.6,0.1-2.4,0.2c-0.8,0.1-1.6,0.1-2.3,0.2c-0.8,0.1-1.5,0.1-2.3,0.2c-0.8,0.1-1.5,0.1-2.3,0.1c-0.7,0-1.5,0.1-2.2,0.1
			c-0.8,0-1.6,0.1-2.3,0.1c-0.7,0-1.4,0.1-2.1,0.1c-0.8,0-1.5,0.1-2.3,0.1c-0.7,0-1.3,0-2,0.1c-0.8,0-1.5,0-2.3,0
			c-0.6,0-1.3,0-1.9,0c-0.8,0-1.5,0-2.3,0c-0.6,0-1.2,0-1.8,0c-0.8,0-1.5,0-2.3,0c-0.6,0-1.2,0-1.7,0c-0.7,0-1.5,0-2.2-0.1
			c-0.6,0-1.1,0-1.6-0.1c-0.7,0-1.5-0.1-2.2-0.1c-0.5,0-1-0.1-1.6-0.1c-0.7,0-1.5-0.1-2.2-0.1c-0.5,0-1-0.1-1.5-0.1
			c-0.7,0-1.5-0.1-2.2-0.2c-0.5,0-0.9-0.1-1.4-0.1c-0.7-0.1-1.5-0.1-2.2-0.2c-0.4-0.1-0.9-0.1-1.3-0.1c-0.7-0.1-1.5-0.2-2.2-0.3
			c-0.4,0-0.8-0.1-1.2-0.1c-0.8-0.1-1.5-0.2-2.2-0.3c-0.3-0.1-0.7-0.1-1.1-0.2c-0.8-0.1-1.5-0.2-2.3-0.3c-0.3-0.1-0.6-0.1-0.9-0.2
			c-0.8-0.1-1.5-0.3-2.3-0.4c-0.2,0-0.5-0.1-0.7-0.1c-0.8-0.2-1.6-0.3-2.4-0.5c-0.2,0-0.3-0.1-0.5-0.1c-0.9-0.2-1.7-0.4-2.5-0.6
			c-0.1,0-0.1,0-0.2,0c-7.8-1.8-14.7-4.1-20.8-6.9c-5.2,0.9-10.3,1.3-15.3,1.3c-10,0-19.4-1.5-27.1-3.3c-0.6-0.2-1.3-0.3-1.9-0.5
			c-1.9-0.5-3.6-1-5.2-1.4c-5.4-1.6-9.5-3.2-11.5-4c0.6,0.6,1.2,1.2,1.7,1.9c3.1,3.1,9.8,9.3,20.2,15.4c0,0,0,0,0.1,0
			c35.3,18.3,39,57.9,39,57.9c13.2-44,40.1-46.2,117.7-60.9c-1.8,0.3-3.5,0.6-5.3,0.8C636.5,492.7,635.9,492.8,635.3,492.9z"/>
		<path class="st2" d="M443.9,466.2L443.9,466.2c-1.1,0.7-2.2,1.4-3.4,2.1c-0.2,0.1-0.5,0.3-0.7,0.4c-0.4,0.2-0.9,0.5-1.3,0.7
			c-0.3,0.1-0.6,0.3-0.9,0.4c-0.4,0.2-0.9,0.4-1.3,0.6c-0.3,0.2-0.7,0.3-1,0.4c-0.4,0.2-0.9,0.4-1.3,0.5c-0.4,0.1-0.7,0.3-1.1,0.4
			c-0.4,0.2-0.9,0.3-1.3,0.5c-0.4,0.1-0.8,0.3-1.2,0.4c-0.4,0.1-0.9,0.3-1.4,0.4c-0.4,0.1-0.8,0.2-1.2,0.3c-0.5,0.1-0.9,0.2-1.4,0.3
			c-0.4,0.1-0.9,0.2-1.3,0.3c-0.5,0.1-0.9,0.2-1.4,0.3c-0.4,0.1-0.9,0.1-1.4,0.2c-0.5,0.1-1,0.1-1.5,0.2c-0.5,0.1-1,0.1-1.4,0.1
			c-0.5,0-1,0.1-1.5,0.1c-0.5,0-1,0.1-1.5,0.1c-0.5,0-1,0-1.6,0c-0.5,0-1,0-1.5,0c-0.5,0-1.1,0-1.6,0c-0.5,0-1.1,0-1.6-0.1
			c-0.5,0-1.1-0.1-1.6-0.1c-0.6,0-1.1-0.1-1.7-0.2c-0.6-0.1-1.1-0.1-1.7-0.2c-0.6-0.1-1.2-0.2-1.8-0.3c-0.6-0.1-1.1-0.2-1.7-0.3
			c-0.1,0-0.3,0-0.4-0.1l-0.1,0c0.1,0,0.3,0.1,0.4,0.1c23.6,3.8,42.5,4.2,57.6,2.2c-0.1-0.1-0.3-0.3-0.4-0.4
			C453.6,473.2,448.5,470.1,443.9,466.2z"/>
		<path class="st9" d="M405.1,474.4c0.6,0.1,1.1,0.1,1.7,0.2c0.6,0.1,1.1,0.1,1.7,0.2c0.6,0,1.1,0.1,1.6,0.1c0.5,0,1.1,0.1,1.6,0.1
			c0.5,0,1.1,0,1.6,0c0.5,0,1,0,1.5,0c0.5,0,1,0,1.6,0c0.5,0,1,0,1.5-0.1c0.5,0,1-0.1,1.5-0.1c0.5,0,0.9-0.1,1.4-0.1
			c0.5-0.1,1-0.1,1.5-0.2c0.5-0.1,0.9-0.1,1.4-0.2c0.5-0.1,1-0.2,1.4-0.3c0.4-0.1,0.9-0.2,1.3-0.3c0.5-0.1,0.9-0.2,1.4-0.3
			c0.4-0.1,0.8-0.2,1.2-0.3c0.5-0.1,0.9-0.2,1.4-0.4c0.4-0.1,0.8-0.3,1.2-0.4c0.4-0.2,0.9-0.3,1.3-0.5c0.4-0.1,0.7-0.3,1.1-0.4
			c0.4-0.2,0.9-0.3,1.3-0.5c0.3-0.1,0.7-0.3,1-0.4c0.4-0.2,0.9-0.4,1.3-0.6c0.3-0.1,0.6-0.3,0.9-0.4c0.4-0.2,0.9-0.5,1.3-0.7
			c0.2-0.1,0.5-0.3,0.7-0.4c1.2-0.7,2.3-1.4,3.4-2.1c-4.5-3.9-8.5-8.5-11.3-13.9c-24.3,8-45.2-7.1-57.2-19.1c0,0-25-2.2-48-38
			c0,0,22.2,66.9,71,78.1c1.1,0.2,2.2,0.4,3.2,0.6c0.6,0.1,1.1,0.2,1.7,0.3C404,474.2,404.6,474.3,405.1,474.4z"/>
		<path class="st8" d="M432.5,452.2C432.5,452.2,432.6,452.2,432.5,452.2c-5.2-10-6.9-22.9-2-39.5c-7.7-4.5-15.7-10.8-22.7-19.5
			c0.1,0.2,0.3,0.3,0.4,0.5c-14.2-2.3-25-7.8-32.9-14.1c0.1,0.1,0.1,0.2,0.1,0.2s-36.2-20.7-29-97.8c0,0-29,91.4,29,151.2
			C387.4,445.2,408.3,460.2,432.5,452.2z"/>
	</g>
</g>
</svg>
